<svg width="48" height="48" viewBox="0 0 48 48" fill="none" xmlns="http://www.w3.org/2000/svg">
    <rect width="48" height="48" rx="24" fill="#2563EB"/>
    <path d="M33.5979 20.3664L33.5828 20.3429L33.563 20.3172L23.5 7L13.4183 20.3407L13.4009 20.3664C11.3789 23.2866 10.007 26.6629 10 30.0563C9.99881 31.5143 10.2604 32.9744 10.8511 34.3673C11.4394 35.7601 12.3603 37.0803 13.6277 38.2445H13.6289C16.3494 40.745 19.9329 42.0021 23.5 42C27.0671 42.0021 30.6494 40.745 33.3712 38.2445C34.6397 37.0802 35.5606 35.76 36.1489 34.3683C36.7396 32.9744 37 31.5143 37 30.0573C36.993 26.663 35.6211 23.2866 33.5979 20.3664ZM33.0352 33.2553C32.6097 34.2583 31.9598 35.1993 31.0098 36.0741C28.9321 37.9818 26.2241 38.9292 23.5 38.9313C20.7758 38.9292 18.0679 37.9817 15.9901 36.0741C15.0391 35.1993 14.3903 34.2582 13.9636 33.2542C13.5392 32.2513 13.3404 31.1799 13.3404 30.0563C13.3323 27.4533 14.4461 24.5651 16.2076 22.0326L23.5 12.3811L30.7947 22.0348C32.5539 24.5673 33.6666 27.4544 33.6596 30.0573C33.6596 31.181 33.4607 32.2524 33.0352 33.2553Z"
          fill="white"/>
    <path d="M19.1495 24C17.5005 25.8295 14.8747 30.6448 16.5237 33.9974C18.3651 37.7421 20.871 35.5161 19.6994 33.1453C17.44 28.5727 19.1495 24 19.1495 24Z"
          fill="white"/>
</svg>
