<svg width="250" height="60" viewBox="0 0 250 60" fill="none" xmlns="http://www.w3.org/2000/svg">
    <g clip-path="url(#clip0_4_14)">
        <g filter="url(#filter0_d_4_14)">
            <path d="M57.2383 31H53.4648L51.9648 27.0977H45.0977L43.6797 31H40L46.6914 13.8203H50.3594L57.2383 31ZM50.8516 24.2031L48.4844 17.8281L46.1641 24.2031H50.8516ZM70.3867 31H67.0938V24.6484C67.0938 23.3047 67.0234 22.4375 66.8828 22.0469C66.7422 21.6484 66.5117 21.3398 66.1914 21.1211C65.8789 20.9023 65.5 20.793 65.0547 20.793C64.4844 20.793 63.9727 20.9492 63.5195 21.2617C63.0664 21.5742 62.7539 21.9883 62.582 22.5039C62.418 23.0195 62.3359 23.9727 62.3359 25.3633V31H59.043V18.5547H62.1016V20.3828C63.1875 18.9766 64.5547 18.2734 66.2031 18.2734C66.9297 18.2734 67.5938 18.4062 68.1953 18.6719C68.7969 18.9297 69.25 19.2617 69.5547 19.668C69.8672 20.0742 70.082 20.5352 70.1992 21.0508C70.3242 21.5664 70.3867 22.3047 70.3867 23.2656V31ZM72.1797 18.5547H75.6836L78.6602 27.3906L81.5664 18.5547H84.9766L80.582 30.5312L79.7969 32.6992C79.5078 33.4258 79.2305 33.9805 78.9648 34.3633C78.707 34.7461 78.4062 35.0547 78.0625 35.2891C77.7266 35.5312 77.3086 35.7188 76.8086 35.8516C76.3164 35.9844 75.7578 36.0508 75.1328 36.0508C74.5 36.0508 73.8789 35.9844 73.2695 35.8516L72.9766 33.2734C73.4922 33.375 73.957 33.4258 74.3711 33.4258C75.1367 33.4258 75.7031 33.1992 76.0703 32.7461C76.4375 32.3008 76.7188 31.7305 76.9141 31.0352L72.1797 18.5547ZM87.1328 13.8203H94C95.3594 13.8203 96.3711 13.8789 97.0352 13.9961C97.707 14.1055 98.3047 14.3398 98.8281 14.6992C99.3594 15.0586 99.8008 15.5391 100.152 16.1406C100.504 16.7344 100.68 17.4023 100.68 18.1445C100.68 18.9492 100.461 19.6875 100.023 20.3594C99.5938 21.0312 99.0078 21.5352 98.2656 21.8711C99.3125 22.1758 100.117 22.6953 100.68 23.4297C101.242 24.1641 101.523 25.0273 101.523 26.0195C101.523 26.8008 101.34 27.5625 100.973 28.3047C100.613 29.0391 100.117 29.6289 99.4844 30.0742C98.8594 30.5117 98.0859 30.7812 97.1641 30.8828C96.5859 30.9453 95.1914 30.9844 92.9805 31H87.1328V13.8203ZM90.6016 16.6797V20.6523H92.875C94.2266 20.6523 95.0664 20.6328 95.3945 20.5938C95.9883 20.5234 96.4531 20.3203 96.7891 19.9844C97.1328 19.6406 97.3047 19.1914 97.3047 18.6367C97.3047 18.1055 97.1562 17.6758 96.8594 17.3477C96.5703 17.0117 96.1367 16.8086 95.5586 16.7383C95.2148 16.6992 94.2266 16.6797 92.5938 16.6797H90.6016ZM90.6016 23.5117V28.1055H93.8125C95.0625 28.1055 95.8555 28.0703 96.1914 28C96.707 27.9062 97.125 27.6797 97.4453 27.3203C97.7734 26.9531 97.9375 26.4648 97.9375 25.8555C97.9375 25.3398 97.8125 24.9023 97.5625 24.543C97.3125 24.1836 96.9492 23.9219 96.4727 23.7578C96.0039 23.5938 94.9805 23.5117 93.4023 23.5117H90.6016ZM106.902 22.3516L103.914 21.8125C104.25 20.6094 104.828 19.7188 105.648 19.1406C106.469 18.5625 107.688 18.2734 109.305 18.2734C110.773 18.2734 111.867 18.4492 112.586 18.8008C113.305 19.1445 113.809 19.5859 114.098 20.125C114.395 20.6562 114.543 21.6367 114.543 23.0664L114.508 26.9102C114.508 28.0039 114.559 28.8125 114.66 29.3359C114.77 29.8516 114.969 30.4062 115.258 31H112C111.914 30.7812 111.809 30.457 111.684 30.0273C111.629 29.832 111.59 29.7031 111.566 29.6406C111.004 30.1875 110.402 30.5977 109.762 30.8711C109.121 31.1445 108.438 31.2812 107.711 31.2812C106.43 31.2812 105.418 30.9336 104.676 30.2383C103.941 29.543 103.574 28.6641 103.574 27.6016C103.574 26.8984 103.742 26.2734 104.078 25.7266C104.414 25.1719 104.883 24.75 105.484 24.4609C106.094 24.1641 106.969 23.9062 108.109 23.6875C109.648 23.3984 110.715 23.1289 111.309 22.8789V22.5508C111.309 21.918 111.152 21.4688 110.84 21.2031C110.527 20.9297 109.938 20.793 109.07 20.793C108.484 20.793 108.027 20.9102 107.699 21.1445C107.371 21.3711 107.105 21.7734 106.902 22.3516ZM111.309 25.0234C110.887 25.1641 110.219 25.332 109.305 25.5273C108.391 25.7227 107.793 25.9141 107.512 26.1016C107.082 26.4062 106.867 26.793 106.867 27.2617C106.867 27.7227 107.039 28.1211 107.383 28.457C107.727 28.793 108.164 28.9609 108.695 28.9609C109.289 28.9609 109.855 28.7656 110.395 28.375C110.793 28.0781 111.055 27.7148 111.18 27.2852C111.266 27.0039 111.309 26.4688 111.309 25.6797V25.0234ZM128.652 22.2344L125.406 22.8203C125.297 22.1719 125.047 21.6836 124.656 21.3555C124.273 21.0273 123.773 20.8633 123.156 20.8633C122.336 20.8633 121.68 21.1484 121.188 21.7188C120.703 22.2812 120.461 23.2266 120.461 24.5547C120.461 26.0312 120.707 27.0742 121.199 27.6836C121.699 28.293 122.367 28.5977 123.203 28.5977C123.828 28.5977 124.34 28.4219 124.738 28.0703C125.137 27.7109 125.418 27.0977 125.582 26.2305L128.816 26.7812C128.48 28.2656 127.836 29.3867 126.883 30.1445C125.93 30.9023 124.652 31.2812 123.051 31.2812C121.23 31.2812 119.777 30.707 118.691 29.5586C117.613 28.4102 117.074 26.8203 117.074 24.7891C117.074 22.7344 117.617 21.1367 118.703 19.9961C119.789 18.8477 121.258 18.2734 123.109 18.2734C124.625 18.2734 125.828 18.6016 126.719 19.2578C127.617 19.9062 128.262 20.8984 128.652 22.2344ZM131.043 31V13.8203H134.336V22.9375L138.191 18.5547H142.246L137.992 23.1016L142.551 31H139L135.871 25.4102L134.336 27.0156V31H131.043ZM143.078 18.5547H144.906V17.6172C144.906 16.5703 145.016 15.7891 145.234 15.2734C145.461 14.7578 145.871 14.3398 146.465 14.0195C147.066 13.6914 147.824 13.5273 148.738 13.5273C149.676 13.5273 150.594 13.668 151.492 13.9492L151.047 16.2461C150.523 16.1211 150.02 16.0586 149.535 16.0586C149.059 16.0586 148.715 16.1719 148.504 16.3984C148.301 16.6172 148.199 17.043 148.199 17.6758V18.5547H150.66V21.1445H148.199V31H144.906V21.1445H143.078V18.5547ZM152.512 31V13.8203H155.805V31H152.512ZM158.43 24.6016C158.43 23.5078 158.699 22.4492 159.238 21.4258C159.777 20.4023 160.539 19.6211 161.523 19.082C162.516 18.543 163.621 18.2734 164.84 18.2734C166.723 18.2734 168.266 18.8867 169.469 20.1133C170.672 21.332 171.273 22.875 171.273 24.7422C171.273 26.625 170.664 28.1875 169.445 29.4297C168.234 30.6641 166.707 31.2812 164.863 31.2812C163.723 31.2812 162.633 31.0234 161.594 30.5078C160.562 29.9922 159.777 29.2383 159.238 28.2461C158.699 27.2461 158.43 26.0312 158.43 24.6016ZM161.805 24.7773C161.805 26.0117 162.098 26.957 162.684 27.6133C163.27 28.2695 163.992 28.5977 164.852 28.5977C165.711 28.5977 166.43 28.2695 167.008 27.6133C167.594 26.957 167.887 26.0039 167.887 24.7539C167.887 23.5352 167.594 22.5977 167.008 21.9414C166.43 21.2852 165.711 20.957 164.852 20.957C163.992 20.957 163.27 21.2852 162.684 21.9414C162.098 22.5977 161.805 23.543 161.805 24.7773ZM176.184 31L172.246 18.5547H175.445L177.777 26.7109L179.922 18.5547H183.098L185.172 26.7109L187.551 18.5547H190.797L186.801 31H183.637L181.492 22.9961L179.383 31H176.184Z"
                  fill="white"/>
        </g>
        <g filter="url(#filter1_d_4_14)">
            <path d="M13.6191 50H11.7324L10.9824 48.0488H7.54883L6.83984 50H5L8.3457 41.4102H10.1797L13.6191 50ZM10.4258 46.6016L9.24219 43.4141L8.08203 46.6016H10.4258ZM17.3809 43.7773H18.916V44.6914C19.1152 44.3789 19.3848 44.125 19.7246 43.9297C20.0645 43.7344 20.4414 43.6367 20.8555 43.6367C21.5781 43.6367 22.1914 43.9199 22.6953 44.4863C23.1992 45.0527 23.4512 45.8418 23.4512 46.8535C23.4512 47.8926 23.1973 48.7012 22.6895 49.2793C22.1816 49.8535 21.5664 50.1406 20.8438 50.1406C20.5 50.1406 20.1875 50.0723 19.9062 49.9355C19.6289 49.7988 19.3359 49.5645 19.0273 49.2324V52.3672H17.3809V43.7773ZM19.0098 46.7832C19.0098 47.4824 19.1484 48 19.4258 48.3359C19.7031 48.668 20.041 48.834 20.4395 48.834C20.8223 48.834 21.1406 48.6816 21.3945 48.377C21.6484 48.0684 21.7754 47.5645 21.7754 46.8652C21.7754 46.2129 21.6445 45.7285 21.3828 45.4121C21.1211 45.0957 20.7969 44.9375 20.4102 44.9375C20.0078 44.9375 19.6738 45.0938 19.4082 45.4062C19.1426 45.7148 19.0098 46.1738 19.0098 46.7832ZM25.9941 45.6758L24.5 45.4062C24.668 44.8047 24.957 44.3594 25.3672 44.0703C25.7773 43.7812 26.3867 43.6367 27.1953 43.6367C27.9297 43.6367 28.4766 43.7246 28.8359 43.9004C29.1953 44.0723 29.4473 44.293 29.5918 44.5625C29.7402 44.8281 29.8145 45.3184 29.8145 46.0332L29.7969 47.9551C29.7969 48.502 29.8223 48.9062 29.873 49.168C29.9277 49.4258 30.0273 49.7031 30.1719 50H28.543C28.5 49.8906 28.4473 49.7285 28.3848 49.5137C28.3574 49.416 28.3379 49.3516 28.3262 49.3203C28.0449 49.5938 27.7441 49.7988 27.4238 49.9355C27.1035 50.0723 26.7617 50.1406 26.3984 50.1406C25.7578 50.1406 25.252 49.9668 24.8809 49.6191C24.5137 49.2715 24.3301 48.832 24.3301 48.3008C24.3301 47.9492 24.4141 47.6367 24.582 47.3633C24.75 47.0859 24.9844 46.875 25.2852 46.7305C25.5898 46.582 26.0273 46.4531 26.5977 46.3438C27.3672 46.1992 27.9004 46.0645 28.1973 45.9395V45.7754C28.1973 45.459 28.1191 45.2344 27.9629 45.1016C27.8066 44.9648 27.5117 44.8965 27.0781 44.8965C26.7852 44.8965 26.5566 44.9551 26.3926 45.0723C26.2285 45.1855 26.0957 45.3867 25.9941 45.6758ZM28.1973 47.0117C27.9863 47.082 27.6523 47.166 27.1953 47.2637C26.7383 47.3613 26.4395 47.457 26.2988 47.5508C26.084 47.7031 25.9766 47.8965 25.9766 48.1309C25.9766 48.3613 26.0625 48.5605 26.2344 48.7285C26.4062 48.8965 26.625 48.9805 26.8906 48.9805C27.1875 48.9805 27.4707 48.8828 27.7402 48.6875C27.9395 48.5391 28.0703 48.3574 28.1328 48.1426C28.1758 48.002 28.1973 47.7344 28.1973 47.3398V47.0117ZM33.0195 50H31.373V43.7773H32.9023V44.6621C33.1641 44.2441 33.3984 43.9688 33.6055 43.8359C33.8164 43.7031 34.0547 43.6367 34.3203 43.6367C34.6953 43.6367 35.0566 43.7402 35.4043 43.9473L34.8945 45.3828C34.6172 45.2031 34.3594 45.1133 34.1211 45.1133C33.8906 45.1133 33.6953 45.1777 33.5352 45.3066C33.375 45.4316 33.248 45.6602 33.1543 45.9922C33.0645 46.3242 33.0195 47.0195 33.0195 48.0781V50ZM38.9727 43.7773V45.0898H37.8477V47.5977C37.8477 48.1055 37.8574 48.4023 37.877 48.4883C37.9004 48.5703 37.9492 48.6387 38.0234 48.6934C38.1016 48.748 38.1953 48.7754 38.3047 48.7754C38.457 48.7754 38.6777 48.7227 38.9668 48.6172L39.1074 49.8945C38.7246 50.0586 38.291 50.1406 37.8066 50.1406C37.5098 50.1406 37.2422 50.0918 37.0039 49.9941C36.7656 49.8926 36.5898 49.7637 36.4766 49.6074C36.3672 49.4473 36.291 49.2324 36.248 48.9629C36.2129 48.7715 36.1953 48.3848 36.1953 47.8027V45.0898H35.4395V43.7773H36.1953V42.541L37.8477 41.5801V43.7773H38.9727ZM43.0742 46.8008C43.0742 46.2539 43.209 45.7246 43.4785 45.2129C43.748 44.7012 44.1289 44.3105 44.6211 44.041C45.1172 43.7715 45.6699 43.6367 46.2793 43.6367C47.2207 43.6367 47.9922 43.9434 48.5938 44.5566C49.1953 45.166 49.4961 45.9375 49.4961 46.8711C49.4961 47.8125 49.1914 48.5938 48.582 49.2148C47.9766 49.832 47.2129 50.1406 46.291 50.1406C45.7207 50.1406 45.1758 50.0117 44.6562 49.7539C44.1406 49.4961 43.748 49.1191 43.4785 48.623C43.209 48.123 43.0742 47.5156 43.0742 46.8008ZM44.7617 46.8887C44.7617 47.5059 44.9082 47.9785 45.2012 48.3066C45.4941 48.6348 45.8555 48.7988 46.2852 48.7988C46.7148 48.7988 47.0742 48.6348 47.3633 48.3066C47.6562 47.9785 47.8027 47.502 47.8027 46.877C47.8027 46.2676 47.6562 45.7988 47.3633 45.4707C47.0742 45.1426 46.7148 44.9785 46.2852 44.9785C45.8555 44.9785 45.4941 45.1426 45.2012 45.4707C44.9082 45.7988 44.7617 46.2715 44.7617 46.8887ZM50.0703 43.7773H50.9844V43.3086C50.9844 42.7852 51.0391 42.3945 51.1484 42.1367C51.2617 41.8789 51.4668 41.6699 51.7637 41.5098C52.0645 41.3457 52.4434 41.2637 52.9004 41.2637C53.3691 41.2637 53.8281 41.334 54.2773 41.4746L54.0547 42.623C53.793 42.5605 53.541 42.5293 53.2988 42.5293C53.0605 42.5293 52.8887 42.5859 52.7832 42.6992C52.6816 42.8086 52.6309 43.0215 52.6309 43.3379V43.7773H53.8613V45.0723H52.6309V50H50.9844V45.0723H50.0703V43.7773ZM58.0684 50V41.4102H59.7148V45.9688L61.6426 43.7773H63.6699L61.543 46.0508L63.8223 50H62.0469L60.4824 47.2051L59.7148 48.0078V50H58.0684ZM68.4102 48.0195L70.0508 48.2949C69.8398 48.8965 69.5059 49.3555 69.0488 49.6719C68.5957 49.9844 68.0273 50.1406 67.3438 50.1406C66.2617 50.1406 65.4609 49.7871 64.9414 49.0801C64.5312 48.5137 64.3262 47.7988 64.3262 46.9355C64.3262 45.9043 64.5957 45.0977 65.1348 44.5156C65.6738 43.9297 66.3555 43.6367 67.1797 43.6367C68.1055 43.6367 68.8359 43.9434 69.3711 44.5566C69.9062 45.166 70.1621 46.1016 70.1387 47.3633H66.0137C66.0254 47.8516 66.1582 48.2324 66.4121 48.5059C66.666 48.7754 66.9824 48.9102 67.3613 48.9102C67.6191 48.9102 67.8359 48.8398 68.0117 48.6992C68.1875 48.5586 68.3203 48.332 68.4102 48.0195ZM68.5039 46.3555C68.4922 45.8789 68.3691 45.5176 68.1348 45.2715C67.9004 45.0215 67.6152 44.8965 67.2793 44.8965C66.9199 44.8965 66.623 45.0273 66.3887 45.2891C66.1543 45.5508 66.0391 45.9062 66.043 46.3555H68.5039ZM75.0898 48.0195L76.7305 48.2949C76.5195 48.8965 76.1855 49.3555 75.7285 49.6719C75.2754 49.9844 74.707 50.1406 74.0234 50.1406C72.9414 50.1406 72.1406 49.7871 71.6211 49.0801C71.2109 48.5137 71.0059 47.7988 71.0059 46.9355C71.0059 45.9043 71.2754 45.0977 71.8145 44.5156C72.3535 43.9297 73.0352 43.6367 73.8594 43.6367C74.7852 43.6367 75.5156 43.9434 76.0508 44.5566C76.5859 45.166 76.8418 46.1016 76.8184 47.3633H72.6934C72.7051 47.8516 72.8379 48.2324 73.0918 48.5059C73.3457 48.7754 73.6621 48.9102 74.041 48.9102C74.2988 48.9102 74.5156 48.8398 74.6914 48.6992C74.8672 48.5586 75 48.332 75.0898 48.0195ZM75.1836 46.3555C75.1719 45.8789 75.0488 45.5176 74.8145 45.2715C74.5801 45.0215 74.2949 44.8965 73.959 44.8965C73.5996 44.8965 73.3027 45.0273 73.0684 45.2891C72.834 45.5508 72.7188 45.9062 72.7227 46.3555H75.1836ZM78.1191 43.7773H79.6543V44.6914C79.8535 44.3789 80.123 44.125 80.4629 43.9297C80.8027 43.7344 81.1797 43.6367 81.5938 43.6367C82.3164 43.6367 82.9297 43.9199 83.4336 44.4863C83.9375 45.0527 84.1895 45.8418 84.1895 46.8535C84.1895 47.8926 83.9355 48.7012 83.4277 49.2793C82.9199 49.8535 82.3047 50.1406 81.582 50.1406C81.2383 50.1406 80.9258 50.0723 80.6445 49.9355C80.3672 49.7988 80.0742 49.5645 79.7656 49.2324V52.3672H78.1191V43.7773ZM79.748 46.7832C79.748 47.4824 79.8867 48 80.1641 48.3359C80.4414 48.668 80.7793 48.834 81.1777 48.834C81.5605 48.834 81.8789 48.6816 82.1328 48.377C82.3867 48.0684 82.5137 47.5645 82.5137 46.8652C82.5137 46.2129 82.3828 45.7285 82.1211 45.4121C81.8594 45.0957 81.5352 44.9375 81.1484 44.9375C80.7461 44.9375 80.4121 45.0938 80.1465 45.4062C79.8809 45.7148 79.748 46.1738 79.748 46.7832ZM85.502 42.9336V41.4102H87.1484V42.9336H85.502ZM85.502 50V43.7773H87.1484V50H85.502ZM94.502 50H92.8555V46.8242C92.8555 46.1523 92.8203 45.7188 92.75 45.5234C92.6797 45.3242 92.5645 45.1699 92.4043 45.0605C92.248 44.9512 92.0586 44.8965 91.8359 44.8965C91.5508 44.8965 91.2949 44.9746 91.0684 45.1309C90.8418 45.2871 90.6855 45.4941 90.5996 45.752C90.5176 46.0098 90.4766 46.4863 90.4766 47.1816V50H88.8301V43.7773H90.3594V44.6914C90.9023 43.9883 91.5859 43.6367 92.4102 43.6367C92.7734 43.6367 93.1055 43.7031 93.4062 43.8359C93.707 43.9648 93.9336 44.1309 94.0859 44.334C94.2422 44.5371 94.3496 44.7676 94.4082 45.0254C94.4707 45.2832 94.502 45.6523 94.502 46.1328V50ZM96.0254 50.4102L97.9062 50.6387C97.9375 50.8574 98.0098 51.0078 98.123 51.0898C98.2793 51.207 98.5254 51.2656 98.8613 51.2656C99.291 51.2656 99.6133 51.2012 99.8281 51.0723C99.9727 50.9863 100.082 50.8477 100.156 50.6562C100.207 50.5195 100.232 50.2676 100.232 49.9004V48.9922C99.7402 49.6641 99.1191 50 98.3691 50C97.5332 50 96.8711 49.6465 96.3828 48.9395C96 48.3809 95.8086 47.6855 95.8086 46.8535C95.8086 45.8105 96.0586 45.0137 96.5586 44.4629C97.0625 43.9121 97.6875 43.6367 98.4336 43.6367C99.2031 43.6367 99.8379 43.9746 100.338 44.6504V43.7773H101.879V49.3613C101.879 50.0957 101.818 50.6445 101.697 51.0078C101.576 51.3711 101.406 51.6562 101.188 51.8633C100.969 52.0703 100.676 52.2324 100.309 52.3496C99.9453 52.4668 99.4844 52.5254 98.9258 52.5254C97.8711 52.5254 97.123 52.3438 96.6816 51.9805C96.2402 51.6211 96.0195 51.1641 96.0195 50.6094C96.0195 50.5547 96.0215 50.4883 96.0254 50.4102ZM97.4961 46.7598C97.4961 47.4199 97.623 47.9043 97.877 48.2129C98.1348 48.5176 98.4512 48.6699 98.8262 48.6699C99.2285 48.6699 99.5684 48.5137 99.8457 48.2012C100.123 47.8848 100.262 47.418 100.262 46.8008C100.262 46.1562 100.129 45.6777 99.8633 45.3652C99.5977 45.0527 99.2617 44.8965 98.8555 44.8965C98.4609 44.8965 98.1348 45.0508 97.877 45.3594C97.623 45.6641 97.4961 46.1309 97.4961 46.7598ZM114.166 50H112.279L111.529 48.0488H108.096L107.387 50H105.547L108.893 41.4102H110.727L114.166 50ZM110.973 46.6016L109.789 43.4141L108.629 46.6016H110.973ZM116.656 50H115.01V43.7773H116.539V44.6621C116.801 44.2441 117.035 43.9688 117.242 43.8359C117.453 43.7031 117.691 43.6367 117.957 43.6367C118.332 43.6367 118.693 43.7402 119.041 43.9473L118.531 45.3828C118.254 45.2031 117.996 45.1133 117.758 45.1133C117.527 45.1133 117.332 45.1777 117.172 45.3066C117.012 45.4316 116.885 45.6602 116.791 45.9922C116.701 46.3242 116.656 47.0195 116.656 48.0781V50ZM119.756 42.9336V41.4102H121.402V42.9336H119.756ZM119.756 50V43.7773H121.402V50H119.756ZM122.434 50V48.7168L124.766 46.0391C125.148 45.6016 125.432 45.291 125.615 45.1074C125.424 45.1191 125.172 45.127 124.859 45.1309L122.662 45.1426V43.7773H127.807V44.9434L125.428 47.6855L124.59 48.5938C125.047 48.5664 125.33 48.5527 125.439 48.5527H127.988V50H122.434ZM128.715 46.8008C128.715 46.2539 128.85 45.7246 129.119 45.2129C129.389 44.7012 129.77 44.3105 130.262 44.041C130.758 43.7715 131.311 43.6367 131.92 43.6367C132.861 43.6367 133.633 43.9434 134.234 44.5566C134.836 45.166 135.137 45.9375 135.137 46.8711C135.137 47.8125 134.832 48.5938 134.223 49.2148C133.617 49.832 132.854 50.1406 131.932 50.1406C131.361 50.1406 130.816 50.0117 130.297 49.7539C129.781 49.4961 129.389 49.1191 129.119 48.623C128.85 48.123 128.715 47.5156 128.715 46.8008ZM130.402 46.8887C130.402 47.5059 130.549 47.9785 130.842 48.3066C131.135 48.6348 131.496 48.7988 131.926 48.7988C132.355 48.7988 132.715 48.6348 133.004 48.3066C133.297 47.9785 133.443 47.502 133.443 46.877C133.443 46.2676 133.297 45.7988 133.004 45.4707C132.715 45.1426 132.355 44.9785 131.926 44.9785C131.496 44.9785 131.135 45.1426 130.842 45.4707C130.549 45.7988 130.402 46.2715 130.402 46.8887ZM142.092 50H140.445V46.8242C140.445 46.1523 140.41 45.7188 140.34 45.5234C140.27 45.3242 140.154 45.1699 139.994 45.0605C139.838 44.9512 139.648 44.8965 139.426 44.8965C139.141 44.8965 138.885 44.9746 138.658 45.1309C138.432 45.2871 138.275 45.4941 138.189 45.752C138.107 46.0098 138.066 46.4863 138.066 47.1816V50H136.42V43.7773H137.949V44.6914C138.492 43.9883 139.176 43.6367 140 43.6367C140.363 43.6367 140.695 43.7031 140.996 43.8359C141.297 43.9648 141.523 44.1309 141.676 44.334C141.832 44.5371 141.939 44.7676 141.998 45.0254C142.061 45.2832 142.092 45.6523 142.092 46.1328V50ZM144.998 45.6758L143.504 45.4062C143.672 44.8047 143.961 44.3594 144.371 44.0703C144.781 43.7812 145.391 43.6367 146.199 43.6367C146.934 43.6367 147.48 43.7246 147.84 43.9004C148.199 44.0723 148.451 44.293 148.596 44.5625C148.744 44.8281 148.818 45.3184 148.818 46.0332L148.801 47.9551C148.801 48.502 148.826 48.9062 148.877 49.168C148.932 49.4258 149.031 49.7031 149.176 50H147.547C147.504 49.8906 147.451 49.7285 147.389 49.5137C147.361 49.416 147.342 49.3516 147.33 49.3203C147.049 49.5938 146.748 49.7988 146.428 49.9355C146.107 50.0723 145.766 50.1406 145.402 50.1406C144.762 50.1406 144.256 49.9668 143.885 49.6191C143.518 49.2715 143.334 48.832 143.334 48.3008C143.334 47.9492 143.418 47.6367 143.586 47.3633C143.754 47.0859 143.988 46.875 144.289 46.7305C144.594 46.582 145.031 46.4531 145.602 46.3438C146.371 46.1992 146.904 46.0645 147.201 45.9395V45.7754C147.201 45.459 147.123 45.2344 146.967 45.1016C146.811 44.9648 146.516 44.8965 146.082 44.8965C145.789 44.8965 145.561 44.9551 145.396 45.0723C145.232 45.1855 145.1 45.3867 144.998 45.6758ZM147.201 47.0117C146.99 47.082 146.656 47.166 146.199 47.2637C145.742 47.3613 145.443 47.457 145.303 47.5508C145.088 47.7031 144.98 47.8965 144.98 48.1309C144.98 48.3613 145.066 48.5605 145.238 48.7285C145.41 48.8965 145.629 48.9805 145.895 48.9805C146.191 48.9805 146.475 48.8828 146.744 48.6875C146.943 48.5391 147.074 48.3574 147.137 48.1426C147.18 48.002 147.201 47.7344 147.201 47.3398V47.0117ZM150.436 44.4629L150.125 42.8633V41.4102H151.918V42.8633L151.648 44.4629H150.436ZM152.727 48.2246L154.379 47.9727C154.449 48.293 154.592 48.5371 154.807 48.7051C155.021 48.8691 155.322 48.9512 155.709 48.9512C156.135 48.9512 156.455 48.873 156.67 48.7168C156.814 48.6074 156.887 48.4609 156.887 48.2773C156.887 48.1523 156.848 48.0488 156.77 47.9668C156.688 47.8887 156.504 47.8164 156.219 47.75C154.891 47.457 154.049 47.1895 153.693 46.9473C153.201 46.6113 152.955 46.1445 152.955 45.5469C152.955 45.0078 153.168 44.5547 153.594 44.1875C154.02 43.8203 154.68 43.6367 155.574 43.6367C156.426 43.6367 157.059 43.7754 157.473 44.0527C157.887 44.3301 158.172 44.7402 158.328 45.2832L156.775 45.5703C156.709 45.3281 156.582 45.1426 156.395 45.0137C156.211 44.8848 155.947 44.8203 155.604 44.8203C155.17 44.8203 154.859 44.8809 154.672 45.002C154.547 45.0879 154.484 45.1992 154.484 45.3359C154.484 45.4531 154.539 45.5527 154.648 45.6348C154.797 45.7441 155.309 45.8984 156.184 46.0977C157.062 46.2969 157.676 46.541 158.023 46.8301C158.367 47.123 158.539 47.5312 158.539 48.0547C158.539 48.625 158.301 49.1152 157.824 49.5254C157.348 49.9355 156.643 50.1406 155.709 50.1406C154.861 50.1406 154.189 49.9688 153.693 49.625C153.201 49.2812 152.879 48.8145 152.727 48.2246ZM164.486 50L162.518 43.7773H164.117L165.283 47.8555L166.355 43.7773H167.943L168.98 47.8555L170.17 43.7773H171.793L169.795 50H168.213L167.141 45.998L166.086 50H164.486ZM173.896 45.6758L172.402 45.4062C172.57 44.8047 172.859 44.3594 173.27 44.0703C173.68 43.7812 174.289 43.6367 175.098 43.6367C175.832 43.6367 176.379 43.7246 176.738 43.9004C177.098 44.0723 177.35 44.293 177.494 44.5625C177.643 44.8281 177.717 45.3184 177.717 46.0332L177.699 47.9551C177.699 48.502 177.725 48.9062 177.775 49.168C177.83 49.4258 177.93 49.7031 178.074 50H176.445C176.402 49.8906 176.35 49.7285 176.287 49.5137C176.26 49.416 176.24 49.3516 176.229 49.3203C175.947 49.5938 175.646 49.7988 175.326 49.9355C175.006 50.0723 174.664 50.1406 174.301 50.1406C173.66 50.1406 173.154 49.9668 172.783 49.6191C172.416 49.2715 172.232 48.832 172.232 48.3008C172.232 47.9492 172.316 47.6367 172.484 47.3633C172.652 47.0859 172.887 46.875 173.188 46.7305C173.492 46.582 173.93 46.4531 174.5 46.3438C175.27 46.1992 175.803 46.0645 176.1 45.9395V45.7754C176.1 45.459 176.021 45.2344 175.865 45.1016C175.709 44.9648 175.414 44.8965 174.98 44.8965C174.688 44.8965 174.459 44.9551 174.295 45.0723C174.131 45.1855 173.998 45.3867 173.896 45.6758ZM176.1 47.0117C175.889 47.082 175.555 47.166 175.098 47.2637C174.641 47.3613 174.342 47.457 174.201 47.5508C173.986 47.7031 173.879 47.8965 173.879 48.1309C173.879 48.3613 173.965 48.5605 174.137 48.7285C174.309 48.8965 174.527 48.9805 174.793 48.9805C175.09 48.9805 175.373 48.8828 175.643 48.6875C175.842 48.5391 175.973 48.3574 176.035 48.1426C176.078 48.002 176.1 47.7344 176.1 47.3398V47.0117ZM182.199 43.7773V45.0898H181.074V47.5977C181.074 48.1055 181.084 48.4023 181.104 48.4883C181.127 48.5703 181.176 48.6387 181.25 48.6934C181.328 48.748 181.422 48.7754 181.531 48.7754C181.684 48.7754 181.904 48.7227 182.193 48.6172L182.334 49.8945C181.951 50.0586 181.518 50.1406 181.033 50.1406C180.736 50.1406 180.469 50.0918 180.23 49.9941C179.992 49.8926 179.816 49.7637 179.703 49.6074C179.594 49.4473 179.518 49.2324 179.475 48.9629C179.439 48.7715 179.422 48.3848 179.422 47.8027V45.0898H178.666V43.7773H179.422V42.541L181.074 41.5801V43.7773H182.199ZM186.945 48.0195L188.586 48.2949C188.375 48.8965 188.041 49.3555 187.584 49.6719C187.131 49.9844 186.562 50.1406 185.879 50.1406C184.797 50.1406 183.996 49.7871 183.477 49.0801C183.066 48.5137 182.861 47.7988 182.861 46.9355C182.861 45.9043 183.131 45.0977 183.67 44.5156C184.209 43.9297 184.891 43.6367 185.715 43.6367C186.641 43.6367 187.371 43.9434 187.906 44.5566C188.441 45.166 188.697 46.1016 188.674 47.3633H184.549C184.561 47.8516 184.693 48.2324 184.947 48.5059C185.201 48.7754 185.518 48.9102 185.896 48.9102C186.154 48.9102 186.371 48.8398 186.547 48.6992C186.723 48.5586 186.855 48.332 186.945 48.0195ZM187.039 46.3555C187.027 45.8789 186.904 45.5176 186.67 45.2715C186.436 45.0215 186.15 44.8965 185.814 44.8965C185.455 44.8965 185.158 45.0273 184.924 45.2891C184.689 45.5508 184.574 45.9062 184.578 46.3555H187.039ZM191.598 50H189.951V43.7773H191.48V44.6621C191.742 44.2441 191.977 43.9688 192.184 43.8359C192.395 43.7031 192.633 43.6367 192.898 43.6367C193.273 43.6367 193.635 43.7402 193.982 43.9473L193.473 45.3828C193.195 45.2031 192.938 45.1133 192.699 45.1133C192.469 45.1133 192.273 45.1777 192.113 45.3066C191.953 45.4316 191.826 45.6602 191.732 45.9922C191.643 46.3242 191.598 47.0195 191.598 48.0781V50ZM197.457 48.2246L199.109 47.9727C199.18 48.293 199.322 48.5371 199.537 48.7051C199.752 48.8691 200.053 48.9512 200.439 48.9512C200.865 48.9512 201.186 48.873 201.4 48.7168C201.545 48.6074 201.617 48.4609 201.617 48.2773C201.617 48.1523 201.578 48.0488 201.5 47.9668C201.418 47.8887 201.234 47.8164 200.949 47.75C199.621 47.457 198.779 47.1895 198.424 46.9473C197.932 46.6113 197.686 46.1445 197.686 45.5469C197.686 45.0078 197.898 44.5547 198.324 44.1875C198.75 43.8203 199.41 43.6367 200.305 43.6367C201.156 43.6367 201.789 43.7754 202.203 44.0527C202.617 44.3301 202.902 44.7402 203.059 45.2832L201.506 45.5703C201.439 45.3281 201.312 45.1426 201.125 45.0137C200.941 44.8848 200.678 44.8203 200.334 44.8203C199.9 44.8203 199.59 44.8809 199.402 45.002C199.277 45.0879 199.215 45.1992 199.215 45.3359C199.215 45.4531 199.27 45.5527 199.379 45.6348C199.527 45.7441 200.039 45.8984 200.914 46.0977C201.793 46.2969 202.406 46.541 202.754 46.8301C203.098 47.123 203.27 47.5312 203.27 48.0547C203.27 48.625 203.031 49.1152 202.555 49.5254C202.078 49.9355 201.373 50.1406 200.439 50.1406C199.592 50.1406 198.92 49.9688 198.424 49.625C197.932 49.2812 197.609 48.8145 197.457 48.2246ZM205.947 45.6758L204.453 45.4062C204.621 44.8047 204.91 44.3594 205.32 44.0703C205.73 43.7812 206.34 43.6367 207.148 43.6367C207.883 43.6367 208.43 43.7246 208.789 43.9004C209.148 44.0723 209.4 44.293 209.545 44.5625C209.693 44.8281 209.768 45.3184 209.768 46.0332L209.75 47.9551C209.75 48.502 209.775 48.9062 209.826 49.168C209.881 49.4258 209.98 49.7031 210.125 50H208.496C208.453 49.8906 208.4 49.7285 208.338 49.5137C208.311 49.416 208.291 49.3516 208.279 49.3203C207.998 49.5938 207.697 49.7988 207.377 49.9355C207.057 50.0723 206.715 50.1406 206.352 50.1406C205.711 50.1406 205.205 49.9668 204.834 49.6191C204.467 49.2715 204.283 48.832 204.283 48.3008C204.283 47.9492 204.367 47.6367 204.535 47.3633C204.703 47.0859 204.938 46.875 205.238 46.7305C205.543 46.582 205.98 46.4531 206.551 46.3438C207.32 46.1992 207.854 46.0645 208.15 45.9395V45.7754C208.15 45.459 208.072 45.2344 207.916 45.1016C207.76 44.9648 207.465 44.8965 207.031 44.8965C206.738 44.8965 206.51 44.9551 206.346 45.0723C206.182 45.1855 206.049 45.3867 205.947 45.6758ZM208.15 47.0117C207.939 47.082 207.605 47.166 207.148 47.2637C206.691 47.3613 206.393 47.457 206.252 47.5508C206.037 47.7031 205.93 47.8965 205.93 48.1309C205.93 48.3613 206.016 48.5605 206.188 48.7285C206.359 48.8965 206.578 48.9805 206.844 48.9805C207.141 48.9805 207.424 48.8828 207.693 48.6875C207.893 48.5391 208.023 48.3574 208.086 48.1426C208.129 48.002 208.15 47.7344 208.15 47.3398V47.0117ZM210.676 43.7773H211.59V43.3086C211.59 42.7852 211.645 42.3945 211.754 42.1367C211.867 41.8789 212.072 41.6699 212.369 41.5098C212.67 41.3457 213.049 41.2637 213.506 41.2637C213.975 41.2637 214.434 41.334 214.883 41.4746L214.66 42.623C214.398 42.5605 214.146 42.5293 213.904 42.5293C213.666 42.5293 213.494 42.5859 213.389 42.6992C213.287 42.8086 213.236 43.0215 213.236 43.3379V43.7773H214.467V45.0723H213.236V50H211.59V45.0723H210.676V43.7773ZM218.996 48.0195L220.637 48.2949C220.426 48.8965 220.092 49.3555 219.635 49.6719C219.182 49.9844 218.613 50.1406 217.93 50.1406C216.848 50.1406 216.047 49.7871 215.527 49.0801C215.117 48.5137 214.912 47.7988 214.912 46.9355C214.912 45.9043 215.182 45.0977 215.721 44.5156C216.26 43.9297 216.941 43.6367 217.766 43.6367C218.691 43.6367 219.422 43.9434 219.957 44.5566C220.492 45.166 220.748 46.1016 220.725 47.3633H216.6C216.611 47.8516 216.744 48.2324 216.998 48.5059C217.252 48.7754 217.568 48.9102 217.947 48.9102C218.205 48.9102 218.422 48.8398 218.598 48.6992C218.773 48.5586 218.906 48.332 218.996 48.0195ZM219.09 46.3555C219.078 45.8789 218.955 45.5176 218.721 45.2715C218.486 45.0215 218.201 44.8965 217.865 44.8965C217.506 44.8965 217.209 45.0273 216.975 45.2891C216.74 45.5508 216.625 45.9062 216.629 46.3555H219.09Z"
                  fill="#E6E6E6"/>
        </g>
        <g filter="url(#filter2_d_4_14)">
            <path d="M190.861 31V29.3535H192.508V31H190.861ZM199.627 26.6172L198.004 26.9102C197.949 26.5859 197.824 26.3418 197.629 26.1777C197.438 26.0137 197.188 25.9316 196.879 25.9316C196.469 25.9316 196.141 26.0742 195.895 26.3594C195.652 26.6406 195.531 27.1133 195.531 27.7773C195.531 28.5156 195.654 29.0371 195.9 29.3418C196.15 29.6465 196.484 29.7988 196.902 29.7988C197.215 29.7988 197.471 29.7109 197.67 29.5352C197.869 29.3555 198.01 29.0488 198.092 28.6152L199.709 28.8906C199.541 29.6328 199.219 30.1934 198.742 30.5723C198.266 30.9512 197.627 31.1406 196.826 31.1406C195.916 31.1406 195.189 30.8535 194.646 30.2793C194.107 29.7051 193.838 28.9102 193.838 27.8945C193.838 26.8672 194.109 26.0684 194.652 25.498C195.195 24.9238 195.93 24.6367 196.855 24.6367C197.613 24.6367 198.215 24.8008 198.66 25.1289C199.109 25.4531 199.432 25.9492 199.627 26.6172ZM200.5 27.8008C200.5 27.2539 200.635 26.7246 200.904 26.2129C201.174 25.7012 201.555 25.3105 202.047 25.041C202.543 24.7715 203.096 24.6367 203.705 24.6367C204.646 24.6367 205.418 24.9434 206.02 25.5566C206.621 26.166 206.922 26.9375 206.922 27.8711C206.922 28.8125 206.617 29.5938 206.008 30.2148C205.402 30.832 204.639 31.1406 203.717 31.1406C203.146 31.1406 202.602 31.0117 202.082 30.7539C201.566 30.4961 201.174 30.1191 200.904 29.623C200.635 29.123 200.5 28.5156 200.5 27.8008ZM202.188 27.8887C202.188 28.5059 202.334 28.9785 202.627 29.3066C202.92 29.6348 203.281 29.7988 203.711 29.7988C204.141 29.7988 204.5 29.6348 204.789 29.3066C205.082 28.9785 205.229 28.502 205.229 27.877C205.229 27.2676 205.082 26.7988 204.789 26.4707C204.5 26.1426 204.141 25.9785 203.711 25.9785C203.281 25.9785 202.92 26.1426 202.627 26.4707C202.334 26.7988 202.188 27.2715 202.188 27.8887ZM208.094 24.7773H209.611V25.627C210.154 24.9668 210.801 24.6367 211.551 24.6367C211.949 24.6367 212.295 24.7188 212.588 24.8828C212.881 25.0469 213.121 25.2949 213.309 25.627C213.582 25.2949 213.877 25.0469 214.193 24.8828C214.51 24.7188 214.848 24.6367 215.207 24.6367C215.664 24.6367 216.051 24.7305 216.367 24.918C216.684 25.1016 216.92 25.373 217.076 25.7324C217.189 25.998 217.246 26.4277 217.246 27.0215V31H215.6V27.4434C215.6 26.8262 215.543 26.4277 215.43 26.248C215.277 26.0137 215.043 25.8965 214.727 25.8965C214.496 25.8965 214.279 25.9668 214.076 26.1074C213.873 26.248 213.727 26.4551 213.637 26.7285C213.547 26.998 213.502 27.4258 213.502 28.0117V31H211.855V27.5898C211.855 26.9844 211.826 26.5938 211.768 26.418C211.709 26.2422 211.617 26.1113 211.492 26.0254C211.371 25.9395 211.205 25.8965 210.994 25.8965C210.74 25.8965 210.512 25.9648 210.309 26.1016C210.105 26.2383 209.959 26.4355 209.869 26.6934C209.783 26.9512 209.74 27.3789 209.74 27.9766V31H208.094V24.7773ZM222.232 23.9336V22.4102H223.879V23.9336H222.232ZM222.232 31V24.7773H223.879V31H222.232ZM231.232 31H229.586V27.8242C229.586 27.1523 229.551 26.7188 229.48 26.5234C229.41 26.3242 229.295 26.1699 229.135 26.0605C228.979 25.9512 228.789 25.8965 228.566 25.8965C228.281 25.8965 228.025 25.9746 227.799 26.1309C227.572 26.2871 227.416 26.4941 227.33 26.752C227.248 27.0098 227.207 27.4863 227.207 28.1816V31H225.561V24.7773H227.09V25.6914C227.633 24.9883 228.316 24.6367 229.141 24.6367C229.504 24.6367 229.836 24.7031 230.137 24.8359C230.438 24.9648 230.664 25.1309 230.816 25.334C230.973 25.5371 231.08 25.7676 231.139 26.0254C231.201 26.2832 231.232 26.6523 231.232 27.1328V31ZM238.334 26.6172L236.711 26.9102C236.656 26.5859 236.531 26.3418 236.336 26.1777C236.145 26.0137 235.895 25.9316 235.586 25.9316C235.176 25.9316 234.848 26.0742 234.602 26.3594C234.359 26.6406 234.238 27.1133 234.238 27.7773C234.238 28.5156 234.361 29.0371 234.607 29.3418C234.857 29.6465 235.191 29.7988 235.609 29.7988C235.922 29.7988 236.178 29.7109 236.377 29.5352C236.576 29.3555 236.717 29.0488 236.799 28.6152L238.416 28.8906C238.248 29.6328 237.926 30.1934 237.449 30.5723C236.973 30.9512 236.334 31.1406 235.533 31.1406C234.623 31.1406 233.896 30.8535 233.354 30.2793C232.814 29.7051 232.545 28.9102 232.545 27.8945C232.545 26.8672 232.816 26.0684 233.359 25.498C233.902 24.9238 234.637 24.6367 235.562 24.6367C236.32 24.6367 236.922 24.8008 237.367 25.1289C237.816 25.4531 238.139 25.9492 238.334 26.6172Z"
                  fill="white"/>
        </g>
        <g filter="url(#filter3_d_4_14)">
            <path d="M34.514 23.959H33.1736C33.1649 23.959 33.1568 23.9556 33.1508 23.9495L32.4176 23.2163C32.2279 23.0267 31.9758 22.9222 31.7075 22.9222H30.3348V22.8898C30.3348 22.336 29.8843 21.8855 29.3305 21.8855H28.2937C27.7399 21.8855 27.2894 22.336 27.2894 22.8898V22.9222H25.9166C25.6484 22.9222 25.3962 23.0267 25.2065 23.2164L24.4735 23.9494C24.4673 23.9556 24.4592 23.9589 24.4506 23.9589H22.5594V22.0677C22.5594 22.0592 22.5628 22.0509 22.5689 22.0448L23.3019 21.3118C23.4916 21.1221 23.5961 20.8699 23.5961 20.6016V19.2289H23.6285C24.1823 19.2289 24.6328 18.7784 24.6328 18.2246V17.1879C24.6328 16.6341 24.1823 16.1836 23.6285 16.1836H21.5227V15.6004H25.7019C26.1493 15.6004 26.5722 15.4048 26.8622 15.0639C27.1521 14.723 27.2767 14.2717 27.2041 13.8256C27.0863 13.1013 26.4166 12.5551 25.6465 12.5551H21.9054L21.734 12.0411C21.5264 11.4184 20.9459 11 20.2895 11H19.7105C19.0541 11 18.4736 11.4184 18.266 12.0411L18.0946 12.5551H14.3535C13.5834 12.5551 12.9137 13.1013 12.7959 13.8256C12.7233 14.2717 12.8479 14.723 13.1378 15.0638C13.4278 15.4048 13.8506 15.6004 14.2981 15.6004H18.4773V16.1835H16.3715C15.8177 16.1835 15.3672 16.634 15.3672 17.1878V18.2246C15.3672 18.7784 15.8177 19.2289 16.3715 19.2289H16.4039V20.6017C16.4039 20.87 16.5084 21.1222 16.6981 21.3118L17.4312 22.0449C17.4372 22.051 17.4407 22.0593 17.4407 22.0678V23.959H15.5495C15.5408 23.959 15.5327 23.9556 15.5266 23.9495L14.7935 23.2163C14.6038 23.0267 14.3516 22.9222 14.0834 22.9222H12.7106V22.8898C12.7106 22.336 12.2601 21.8855 11.7063 21.8855H10.6695C10.1157 21.8855 9.66523 22.336 9.66523 22.8898V22.9222H8.29242C8.02417 22.9222 7.77205 23.0267 7.58227 23.2164L6.84931 23.9494C6.84315 23.9556 6.83499 23.959 6.82637 23.959H5.48596C5.21758 23.959 5 24.1765 5 24.4449V28.5918C5 28.8602 5.21758 29.0778 5.48596 29.0778H6.82637C6.83505 29.0778 6.84315 29.0811 6.84924 29.0872L7.5824 29.8204C7.77212 30.01 8.02423 30.1145 8.29248 30.1145H9.66523V30.1469C9.66523 30.7007 10.1157 31.1512 10.6695 31.1512H11.7063C12.2601 31.1512 12.7106 30.7007 12.7106 30.1469V30.1145H14.0834C14.3516 30.1145 14.6038 30.01 14.7935 29.8203L15.5265 29.0873C15.5327 29.0811 15.5408 29.0778 15.5494 29.0778H24.4505C24.4592 29.0778 24.4673 29.0812 24.4734 29.0873L25.2065 29.8204C25.3962 30.0101 25.6484 30.1145 25.9166 30.1145H27.2894V30.1469C27.2894 30.7007 27.7399 31.1513 28.2937 31.1513H29.3305C29.8843 31.1513 30.3348 30.7007 30.3348 30.1469V30.1145H31.7076C31.9758 30.1145 32.2279 30.01 32.4177 29.8203L33.1507 29.0873C33.1568 29.0811 33.165 29.0778 33.1736 29.0778H34.514C34.7824 29.0778 35 28.8603 35 28.5919V24.445C35 24.1765 34.7824 23.959 34.514 23.959ZM31.7076 23.8942C31.7163 23.8942 31.7244 23.8975 31.7305 23.9036L32.4636 24.6368C32.6533 24.8264 32.9054 24.9309 33.1737 24.9309H34.0281V26.5508H30.3348V23.8942H31.7076ZM13.8782 14.4342C13.7717 14.309 13.7281 14.1484 13.7552 13.9817C13.7967 13.7267 14.0595 13.527 14.3535 13.527H18.4449C18.6541 13.527 18.8398 13.3932 18.9059 13.1947L19.188 12.3485C19.2631 12.1232 19.4731 11.9719 19.7105 11.9719H20.2895C20.527 11.9719 20.7369 12.1232 20.812 12.3485L21.0941 13.1947C21.1602 13.3932 21.3459 13.527 21.5551 13.527H25.6465C25.9405 13.527 26.2033 13.7267 26.2448 13.9817C26.2719 14.1484 26.2283 14.3091 26.1218 14.4342C26.0168 14.5577 25.8638 14.6285 25.7019 14.6285H14.2981C14.1362 14.6285 13.9832 14.5577 13.8782 14.4342ZM19.4492 15.6004H20.5508V16.1836H19.4492V15.6004ZM16.3391 18.2246V17.1879C16.3391 17.1701 16.3536 17.1555 16.3715 17.1555H23.6285C23.6464 17.1555 23.6609 17.1701 23.6609 17.1879V18.2246C23.6609 18.2424 23.6464 18.257 23.6285 18.257H16.3715C16.3536 18.257 16.3391 18.2424 16.3391 18.2246ZM14.0834 23.8942C14.0921 23.8942 14.1002 23.8975 14.1063 23.9036L14.8394 24.6368C15.0291 24.8264 15.2813 24.9309 15.5495 24.9309H17.9266C18.1949 24.9309 18.4125 24.7134 18.4125 24.4449V22.0678C18.4125 21.7995 18.308 21.5473 18.1184 21.3577L17.3852 20.6246C17.3792 20.6185 17.3757 20.6102 17.3757 20.6017V19.2289H22.6241V20.6017C22.6241 20.6102 22.6207 20.6186 22.6146 20.6247L21.8816 21.3577C21.6919 21.5474 21.5874 21.7995 21.5874 22.0679V24.4449C21.5874 24.7134 21.805 24.9309 22.0734 24.9309H24.4505C24.7187 24.9309 24.9709 24.8264 25.1606 24.6367L25.8936 23.9037C25.8998 23.8975 25.9079 23.8942 25.9165 23.8942H27.2894V26.5508H12.7106V23.8942H14.0834V23.8942ZM6.82637 24.9309C7.09462 24.9309 7.34674 24.8264 7.53652 24.6367L8.26948 23.9037C8.27564 23.8975 8.2838 23.8942 8.29242 23.8942H9.66523V26.5508H5.97192V24.931H6.82637V24.9309ZM8.29242 29.1425C8.28374 29.1425 8.27564 29.1392 8.26955 29.1331L7.53639 28.3999C7.34674 28.2103 7.09456 28.1058 6.82637 28.1058H5.97192V27.5227H9.66523V29.1425H8.29242ZM11.7387 30.1469C11.7387 30.1647 11.7241 30.1793 11.7063 30.1793H10.6695C10.6517 30.1793 10.6371 30.1647 10.6371 30.1469V22.8898C10.6371 22.872 10.6517 22.8575 10.6695 22.8575H11.7063C11.7241 22.8575 11.7387 22.872 11.7387 22.8898V30.1469ZM25.9166 29.1425C25.9079 29.1425 25.8998 29.1392 25.8937 29.1331L25.1606 28.3999C24.9709 28.2103 24.7187 28.1058 24.4505 28.1058H15.5494C15.2812 28.1058 15.0291 28.2103 14.8393 28.4L14.1063 29.133C14.1002 29.1392 14.092 29.1425 14.0834 29.1425H12.7106V27.5226H27.2894V29.1425H25.9166V29.1425ZM29.3629 30.1469C29.3629 30.1647 29.3483 30.1793 29.3305 30.1793H28.2937C28.2759 30.1793 28.2613 30.1647 28.2613 30.1469V22.8898C28.2613 22.872 28.2759 22.8575 28.2937 22.8575H29.3305C29.3483 22.8575 29.3629 22.872 29.3629 22.8898V30.1469ZM33.1736 28.1058C32.9054 28.1058 32.6533 28.2103 32.4635 28.4L31.7305 29.133C31.7244 29.1392 31.7162 29.1425 31.7076 29.1425H30.3348V27.5226H34.0281V28.1058H33.1736V28.1058Z"
                  fill="white"/>
        </g>
    </g>
    <defs>
        <filter id="filter0_d_4_14" x="36" y="13.5273" width="158.797" height="30.5234" filterUnits="userSpaceOnUse"
                color-interpolation-filters="sRGB">
            <feFlood flood-opacity="0" result="BackgroundImageFix"/>
            <feColorMatrix in="SourceAlpha" type="matrix" values="0 0 0 0 0 0 0 0 0 0 0 0 0 0 0 0 0 0 127 0"
                           result="hardAlpha"/>
            <feOffset dy="4"/>
            <feGaussianBlur stdDeviation="2"/>
            <feComposite in2="hardAlpha" operator="out"/>
            <feColorMatrix type="matrix" values="0 0 0 0 0 0 0 0 0 0 0 0 0 0 0 0 0 0 0.25 0"/>
            <feBlend mode="normal" in2="BackgroundImageFix" result="effect1_dropShadow_4_14"/>
            <feBlend mode="normal" in="SourceGraphic" in2="effect1_dropShadow_4_14" result="shape"/>
        </filter>
        <filter id="filter1_d_4_14" x="1" y="41.2637" width="223.76" height="19.2617" filterUnits="userSpaceOnUse"
                color-interpolation-filters="sRGB">
            <feFlood flood-opacity="0" result="BackgroundImageFix"/>
            <feColorMatrix in="SourceAlpha" type="matrix" values="0 0 0 0 0 0 0 0 0 0 0 0 0 0 0 0 0 0 127 0"
                           result="hardAlpha"/>
            <feOffset dy="4"/>
            <feGaussianBlur stdDeviation="2"/>
            <feComposite in2="hardAlpha" operator="out"/>
            <feColorMatrix type="matrix" values="0 0 0 0 0 0 0 0 0 0 0 0 0 0 0 0 0 0 0.25 0"/>
            <feBlend mode="normal" in2="BackgroundImageFix" result="effect1_dropShadow_4_14"/>
            <feBlend mode="normal" in="SourceGraphic" in2="effect1_dropShadow_4_14" result="shape"/>
        </filter>
        <filter id="filter2_d_4_14" x="186.861" y="22.4102" width="55.5547" height="16.7305"
                filterUnits="userSpaceOnUse" color-interpolation-filters="sRGB">
            <feFlood flood-opacity="0" result="BackgroundImageFix"/>
            <feColorMatrix in="SourceAlpha" type="matrix" values="0 0 0 0 0 0 0 0 0 0 0 0 0 0 0 0 0 0 127 0"
                           result="hardAlpha"/>
            <feOffset dy="4"/>
            <feGaussianBlur stdDeviation="2"/>
            <feComposite in2="hardAlpha" operator="out"/>
            <feColorMatrix type="matrix" values="0 0 0 0 0 0 0 0 0 0 0 0 0 0 0 0 0 0 0.25 0"/>
            <feBlend mode="normal" in2="BackgroundImageFix" result="effect1_dropShadow_4_14"/>
            <feBlend mode="normal" in="SourceGraphic" in2="effect1_dropShadow_4_14" result="shape"/>
        </filter>
        <filter id="filter3_d_4_14" x="1" y="11" width="38" height="28.1513" filterUnits="userSpaceOnUse"
                color-interpolation-filters="sRGB">
            <feFlood flood-opacity="0" result="BackgroundImageFix"/>
            <feColorMatrix in="SourceAlpha" type="matrix" values="0 0 0 0 0 0 0 0 0 0 0 0 0 0 0 0 0 0 127 0"
                           result="hardAlpha"/>
            <feOffset dy="4"/>
            <feGaussianBlur stdDeviation="2"/>
            <feComposite in2="hardAlpha" operator="out"/>
            <feColorMatrix type="matrix" values="0 0 0 0 0 0 0 0 0 0 0 0 0 0 0 0 0 0 0.25 0"/>
            <feBlend mode="normal" in2="BackgroundImageFix" result="effect1_dropShadow_4_14"/>
            <feBlend mode="normal" in="SourceGraphic" in2="effect1_dropShadow_4_14" result="shape"/>
        </filter>
        <clipPath id="clip0_4_14">
            <rect width="250" height="60" fill="white"/>
        </clipPath>
    </defs>
</svg>
