<svg width="250" height="60" viewBox="0 0 250 60" fill="none" xmlns="http://www.w3.org/2000/svg">
    <g clip-path="url(#clip0_4_14)">
        <g filter="url(#filter0_d_4_14)">
            <path d="M14.6191 50H12.7324L11.9824 48.0488H8.54883L7.83984 50H6L9.3457 41.4102H11.1797L14.6191 50ZM11.4258 46.6016L10.2422 43.4141L9.08203 46.6016H11.4258ZM18.3809 43.7773H19.916V44.6914C20.1152 44.3789 20.3848 44.125 20.7246 43.9297C21.0645 43.7344 21.4414 43.6367 21.8555 43.6367C22.5781 43.6367 23.1914 43.9199 23.6953 44.4863C24.1992 45.0527 24.4512 45.8418 24.4512 46.8535C24.4512 47.8926 24.1973 48.7012 23.6895 49.2793C23.1816 49.8535 22.5664 50.1406 21.8438 50.1406C21.5 50.1406 21.1875 50.0723 20.9062 49.9355C20.6289 49.7988 20.3359 49.5645 20.0273 49.2324V52.3672H18.3809V43.7773ZM20.0098 46.7832C20.0098 47.4824 20.1484 48 20.4258 48.3359C20.7031 48.668 21.041 48.834 21.4395 48.834C21.8223 48.834 22.1406 48.6816 22.3945 48.377C22.6484 48.0684 22.7754 47.5645 22.7754 46.8652C22.7754 46.2129 22.6445 45.7285 22.3828 45.4121C22.1211 45.0957 21.7969 44.9375 21.4102 44.9375C21.0078 44.9375 20.6738 45.0938 20.4082 45.4062C20.1426 45.7148 20.0098 46.1738 20.0098 46.7832ZM26.9941 45.6758L25.5 45.4062C25.668 44.8047 25.957 44.3594 26.3672 44.0703C26.7773 43.7812 27.3867 43.6367 28.1953 43.6367C28.9297 43.6367 29.4766 43.7246 29.8359 43.9004C30.1953 44.0723 30.4473 44.293 30.5918 44.5625C30.7402 44.8281 30.8145 45.3184 30.8145 46.0332L30.7969 47.9551C30.7969 48.502 30.8223 48.9062 30.873 49.168C30.9277 49.4258 31.0273 49.7031 31.1719 50H29.543C29.5 49.8906 29.4473 49.7285 29.3848 49.5137C29.3574 49.416 29.3379 49.3516 29.3262 49.3203C29.0449 49.5938 28.7441 49.7988 28.4238 49.9355C28.1035 50.0723 27.7617 50.1406 27.3984 50.1406C26.7578 50.1406 26.252 49.9668 25.8809 49.6191C25.5137 49.2715 25.3301 48.832 25.3301 48.3008C25.3301 47.9492 25.4141 47.6367 25.582 47.3633C25.75 47.0859 25.9844 46.875 26.2852 46.7305C26.5898 46.582 27.0273 46.4531 27.5977 46.3438C28.3672 46.1992 28.9004 46.0645 29.1973 45.9395V45.7754C29.1973 45.459 29.1191 45.2344 28.9629 45.1016C28.8066 44.9648 28.5117 44.8965 28.0781 44.8965C27.7852 44.8965 27.5566 44.9551 27.3926 45.0723C27.2285 45.1855 27.0957 45.3867 26.9941 45.6758ZM29.1973 47.0117C28.9863 47.082 28.6523 47.166 28.1953 47.2637C27.7383 47.3613 27.4395 47.457 27.2988 47.5508C27.084 47.7031 26.9766 47.8965 26.9766 48.1309C26.9766 48.3613 27.0625 48.5605 27.2344 48.7285C27.4062 48.8965 27.625 48.9805 27.8906 48.9805C28.1875 48.9805 28.4707 48.8828 28.7402 48.6875C28.9395 48.5391 29.0703 48.3574 29.1328 48.1426C29.1758 48.002 29.1973 47.7344 29.1973 47.3398V47.0117ZM34.0195 50H32.373V43.7773H33.9023V44.6621C34.1641 44.2441 34.3984 43.9688 34.6055 43.8359C34.8164 43.7031 35.0547 43.6367 35.3203 43.6367C35.6953 43.6367 36.0566 43.7402 36.4043 43.9473L35.8945 45.3828C35.6172 45.2031 35.3594 45.1133 35.1211 45.1133C34.8906 45.1133 34.6953 45.1777 34.5352 45.3066C34.375 45.4316 34.248 45.6602 34.1543 45.9922C34.0645 46.3242 34.0195 47.0195 34.0195 48.0781V50ZM39.9727 43.7773V45.0898H38.8477V47.5977C38.8477 48.1055 38.8574 48.4023 38.877 48.4883C38.9004 48.5703 38.9492 48.6387 39.0234 48.6934C39.1016 48.748 39.1953 48.7754 39.3047 48.7754C39.457 48.7754 39.6777 48.7227 39.9668 48.6172L40.1074 49.8945C39.7246 50.0586 39.291 50.1406 38.8066 50.1406C38.5098 50.1406 38.2422 50.0918 38.0039 49.9941C37.7656 49.8926 37.5898 49.7637 37.4766 49.6074C37.3672 49.4473 37.291 49.2324 37.248 48.9629C37.2129 48.7715 37.1953 48.3848 37.1953 47.8027V45.0898H36.4395V43.7773H37.1953V42.541L38.8477 41.5801V43.7773H39.9727ZM44.0742 46.8008C44.0742 46.2539 44.209 45.7246 44.4785 45.2129C44.748 44.7012 45.1289 44.3105 45.6211 44.041C46.1172 43.7715 46.6699 43.6367 47.2793 43.6367C48.2207 43.6367 48.9922 43.9434 49.5938 44.5566C50.1953 45.166 50.4961 45.9375 50.4961 46.8711C50.4961 47.8125 50.1914 48.5938 49.582 49.2148C48.9766 49.832 48.2129 50.1406 47.291 50.1406C46.7207 50.1406 46.1758 50.0117 45.6562 49.7539C45.1406 49.4961 44.748 49.1191 44.4785 48.623C44.209 48.123 44.0742 47.5156 44.0742 46.8008ZM45.7617 46.8887C45.7617 47.5059 45.9082 47.9785 46.2012 48.3066C46.4941 48.6348 46.8555 48.7988 47.2852 48.7988C47.7148 48.7988 48.0742 48.6348 48.3633 48.3066C48.6562 47.9785 48.8027 47.502 48.8027 46.877C48.8027 46.2676 48.6562 45.7988 48.3633 45.4707C48.0742 45.1426 47.7148 44.9785 47.2852 44.9785C46.8555 44.9785 46.4941 45.1426 46.2012 45.4707C45.9082 45.7988 45.7617 46.2715 45.7617 46.8887ZM51.0703 43.7773H51.9844V43.3086C51.9844 42.7852 52.0391 42.3945 52.1484 42.1367C52.2617 41.8789 52.4668 41.6699 52.7637 41.5098C53.0645 41.3457 53.4434 41.2637 53.9004 41.2637C54.3691 41.2637 54.8281 41.334 55.2773 41.4746L55.0547 42.623C54.793 42.5605 54.541 42.5293 54.2988 42.5293C54.0605 42.5293 53.8887 42.5859 53.7832 42.6992C53.6816 42.8086 53.6309 43.0215 53.6309 43.3379V43.7773H54.8613V45.0723H53.6309V50H51.9844V45.0723H51.0703V43.7773ZM59.0684 50V41.4102H60.7148V45.9688L62.6426 43.7773H64.6699L62.543 46.0508L64.8223 50H63.0469L61.4824 47.2051L60.7148 48.0078V50H59.0684ZM69.4102 48.0195L71.0508 48.2949C70.8398 48.8965 70.5059 49.3555 70.0488 49.6719C69.5957 49.9844 69.0273 50.1406 68.3438 50.1406C67.2617 50.1406 66.4609 49.7871 65.9414 49.0801C65.5312 48.5137 65.3262 47.7988 65.3262 46.9355C65.3262 45.9043 65.5957 45.0977 66.1348 44.5156C66.6738 43.9297 67.3555 43.6367 68.1797 43.6367C69.1055 43.6367 69.8359 43.9434 70.3711 44.5566C70.9062 45.166 71.1621 46.1016 71.1387 47.3633H67.0137C67.0254 47.8516 67.1582 48.2324 67.4121 48.5059C67.666 48.7754 67.9824 48.9102 68.3613 48.9102C68.6191 48.9102 68.8359 48.8398 69.0117 48.6992C69.1875 48.5586 69.3203 48.332 69.4102 48.0195ZM69.5039 46.3555C69.4922 45.8789 69.3691 45.5176 69.1348 45.2715C68.9004 45.0215 68.6152 44.8965 68.2793 44.8965C67.9199 44.8965 67.623 45.0273 67.3887 45.2891C67.1543 45.5508 67.0391 45.9062 67.043 46.3555H69.5039ZM76.0898 48.0195L77.7305 48.2949C77.5195 48.8965 77.1855 49.3555 76.7285 49.6719C76.2754 49.9844 75.707 50.1406 75.0234 50.1406C73.9414 50.1406 73.1406 49.7871 72.6211 49.0801C72.2109 48.5137 72.0059 47.7988 72.0059 46.9355C72.0059 45.9043 72.2754 45.0977 72.8145 44.5156C73.3535 43.9297 74.0352 43.6367 74.8594 43.6367C75.7852 43.6367 76.5156 43.9434 77.0508 44.5566C77.5859 45.166 77.8418 46.1016 77.8184 47.3633H73.6934C73.7051 47.8516 73.8379 48.2324 74.0918 48.5059C74.3457 48.7754 74.6621 48.9102 75.041 48.9102C75.2988 48.9102 75.5156 48.8398 75.6914 48.6992C75.8672 48.5586 76 48.332 76.0898 48.0195ZM76.1836 46.3555C76.1719 45.8789 76.0488 45.5176 75.8145 45.2715C75.5801 45.0215 75.2949 44.8965 74.959 44.8965C74.5996 44.8965 74.3027 45.0273 74.0684 45.2891C73.834 45.5508 73.7188 45.9062 73.7227 46.3555H76.1836ZM79.1191 43.7773H80.6543V44.6914C80.8535 44.3789 81.123 44.125 81.4629 43.9297C81.8027 43.7344 82.1797 43.6367 82.5938 43.6367C83.3164 43.6367 83.9297 43.9199 84.4336 44.4863C84.9375 45.0527 85.1895 45.8418 85.1895 46.8535C85.1895 47.8926 84.9355 48.7012 84.4277 49.2793C83.9199 49.8535 83.3047 50.1406 82.582 50.1406C82.2383 50.1406 81.9258 50.0723 81.6445 49.9355C81.3672 49.7988 81.0742 49.5645 80.7656 49.2324V52.3672H79.1191V43.7773ZM80.748 46.7832C80.748 47.4824 80.8867 48 81.1641 48.3359C81.4414 48.668 81.7793 48.834 82.1777 48.834C82.5605 48.834 82.8789 48.6816 83.1328 48.377C83.3867 48.0684 83.5137 47.5645 83.5137 46.8652C83.5137 46.2129 83.3828 45.7285 83.1211 45.4121C82.8594 45.0957 82.5352 44.9375 82.1484 44.9375C81.7461 44.9375 81.4121 45.0938 81.1465 45.4062C80.8809 45.7148 80.748 46.1738 80.748 46.7832ZM86.502 42.9336V41.4102H88.1484V42.9336H86.502ZM86.502 50V43.7773H88.1484V50H86.502ZM95.502 50H93.8555V46.8242C93.8555 46.1523 93.8203 45.7188 93.75 45.5234C93.6797 45.3242 93.5645 45.1699 93.4043 45.0605C93.248 44.9512 93.0586 44.8965 92.8359 44.8965C92.5508 44.8965 92.2949 44.9746 92.0684 45.1309C91.8418 45.2871 91.6855 45.4941 91.5996 45.752C91.5176 46.0098 91.4766 46.4863 91.4766 47.1816V50H89.8301V43.7773H91.3594V44.6914C91.9023 43.9883 92.5859 43.6367 93.4102 43.6367C93.7734 43.6367 94.1055 43.7031 94.4062 43.8359C94.707 43.9648 94.9336 44.1309 95.0859 44.334C95.2422 44.5371 95.3496 44.7676 95.4082 45.0254C95.4707 45.2832 95.502 45.6523 95.502 46.1328V50ZM97.0254 50.4102L98.9062 50.6387C98.9375 50.8574 99.0098 51.0078 99.123 51.0898C99.2793 51.207 99.5254 51.2656 99.8613 51.2656C100.291 51.2656 100.613 51.2012 100.828 51.0723C100.973 50.9863 101.082 50.8477 101.156 50.6562C101.207 50.5195 101.232 50.2676 101.232 49.9004V48.9922C100.74 49.6641 100.119 50 99.3691 50C98.5332 50 97.8711 49.6465 97.3828 48.9395C97 48.3809 96.8086 47.6855 96.8086 46.8535C96.8086 45.8105 97.0586 45.0137 97.5586 44.4629C98.0625 43.9121 98.6875 43.6367 99.4336 43.6367C100.203 43.6367 100.838 43.9746 101.338 44.6504V43.7773H102.879V49.3613C102.879 50.0957 102.818 50.6445 102.697 51.0078C102.576 51.3711 102.406 51.6562 102.188 51.8633C101.969 52.0703 101.676 52.2324 101.309 52.3496C100.945 52.4668 100.484 52.5254 99.9258 52.5254C98.8711 52.5254 98.123 52.3438 97.6816 51.9805C97.2402 51.6211 97.0195 51.1641 97.0195 50.6094C97.0195 50.5547 97.0215 50.4883 97.0254 50.4102ZM98.4961 46.7598C98.4961 47.4199 98.623 47.9043 98.877 48.2129C99.1348 48.5176 99.4512 48.6699 99.8262 48.6699C100.229 48.6699 100.568 48.5137 100.846 48.2012C101.123 47.8848 101.262 47.418 101.262 46.8008C101.262 46.1562 101.129 45.6777 100.863 45.3652C100.598 45.0527 100.262 44.8965 99.8555 44.8965C99.4609 44.8965 99.1348 45.0508 98.877 45.3594C98.623 45.6641 98.4961 46.1309 98.4961 46.7598ZM115.166 50H113.279L112.529 48.0488H109.096L108.387 50H106.547L109.893 41.4102H111.727L115.166 50ZM111.973 46.6016L110.789 43.4141L109.629 46.6016H111.973ZM117.656 50H116.01V43.7773H117.539V44.6621C117.801 44.2441 118.035 43.9688 118.242 43.8359C118.453 43.7031 118.691 43.6367 118.957 43.6367C119.332 43.6367 119.693 43.7402 120.041 43.9473L119.531 45.3828C119.254 45.2031 118.996 45.1133 118.758 45.1133C118.527 45.1133 118.332 45.1777 118.172 45.3066C118.012 45.4316 117.885 45.6602 117.791 45.9922C117.701 46.3242 117.656 47.0195 117.656 48.0781V50ZM120.756 42.9336V41.4102H122.402V42.9336H120.756ZM120.756 50V43.7773H122.402V50H120.756ZM123.434 50V48.7168L125.766 46.0391C126.148 45.6016 126.432 45.291 126.615 45.1074C126.424 45.1191 126.172 45.127 125.859 45.1309L123.662 45.1426V43.7773H128.807V44.9434L126.428 47.6855L125.59 48.5938C126.047 48.5664 126.33 48.5527 126.439 48.5527H128.988V50H123.434ZM129.715 46.8008C129.715 46.2539 129.85 45.7246 130.119 45.2129C130.389 44.7012 130.77 44.3105 131.262 44.041C131.758 43.7715 132.311 43.6367 132.92 43.6367C133.861 43.6367 134.633 43.9434 135.234 44.5566C135.836 45.166 136.137 45.9375 136.137 46.8711C136.137 47.8125 135.832 48.5938 135.223 49.2148C134.617 49.832 133.854 50.1406 132.932 50.1406C132.361 50.1406 131.816 50.0117 131.297 49.7539C130.781 49.4961 130.389 49.1191 130.119 48.623C129.85 48.123 129.715 47.5156 129.715 46.8008ZM131.402 46.8887C131.402 47.5059 131.549 47.9785 131.842 48.3066C132.135 48.6348 132.496 48.7988 132.926 48.7988C133.355 48.7988 133.715 48.6348 134.004 48.3066C134.297 47.9785 134.443 47.502 134.443 46.877C134.443 46.2676 134.297 45.7988 134.004 45.4707C133.715 45.1426 133.355 44.9785 132.926 44.9785C132.496 44.9785 132.135 45.1426 131.842 45.4707C131.549 45.7988 131.402 46.2715 131.402 46.8887ZM143.092 50H141.445V46.8242C141.445 46.1523 141.41 45.7188 141.34 45.5234C141.27 45.3242 141.154 45.1699 140.994 45.0605C140.838 44.9512 140.648 44.8965 140.426 44.8965C140.141 44.8965 139.885 44.9746 139.658 45.1309C139.432 45.2871 139.275 45.4941 139.189 45.752C139.107 46.0098 139.066 46.4863 139.066 47.1816V50H137.42V43.7773H138.949V44.6914C139.492 43.9883 140.176 43.6367 141 43.6367C141.363 43.6367 141.695 43.7031 141.996 43.8359C142.297 43.9648 142.523 44.1309 142.676 44.334C142.832 44.5371 142.939 44.7676 142.998 45.0254C143.061 45.2832 143.092 45.6523 143.092 46.1328V50ZM145.998 45.6758L144.504 45.4062C144.672 44.8047 144.961 44.3594 145.371 44.0703C145.781 43.7812 146.391 43.6367 147.199 43.6367C147.934 43.6367 148.48 43.7246 148.84 43.9004C149.199 44.0723 149.451 44.293 149.596 44.5625C149.744 44.8281 149.818 45.3184 149.818 46.0332L149.801 47.9551C149.801 48.502 149.826 48.9062 149.877 49.168C149.932 49.4258 150.031 49.7031 150.176 50H148.547C148.504 49.8906 148.451 49.7285 148.389 49.5137C148.361 49.416 148.342 49.3516 148.33 49.3203C148.049 49.5938 147.748 49.7988 147.428 49.9355C147.107 50.0723 146.766 50.1406 146.402 50.1406C145.762 50.1406 145.256 49.9668 144.885 49.6191C144.518 49.2715 144.334 48.832 144.334 48.3008C144.334 47.9492 144.418 47.6367 144.586 47.3633C144.754 47.0859 144.988 46.875 145.289 46.7305C145.594 46.582 146.031 46.4531 146.602 46.3438C147.371 46.1992 147.904 46.0645 148.201 45.9395V45.7754C148.201 45.459 148.123 45.2344 147.967 45.1016C147.811 44.9648 147.516 44.8965 147.082 44.8965C146.789 44.8965 146.561 44.9551 146.396 45.0723C146.232 45.1855 146.1 45.3867 145.998 45.6758ZM148.201 47.0117C147.99 47.082 147.656 47.166 147.199 47.2637C146.742 47.3613 146.443 47.457 146.303 47.5508C146.088 47.7031 145.98 47.8965 145.98 48.1309C145.98 48.3613 146.066 48.5605 146.238 48.7285C146.41 48.8965 146.629 48.9805 146.895 48.9805C147.191 48.9805 147.475 48.8828 147.744 48.6875C147.943 48.5391 148.074 48.3574 148.137 48.1426C148.18 48.002 148.201 47.7344 148.201 47.3398V47.0117ZM151.436 44.4629L151.125 42.8633V41.4102H152.918V42.8633L152.648 44.4629H151.436ZM153.727 48.2246L155.379 47.9727C155.449 48.293 155.592 48.5371 155.807 48.7051C156.021 48.8691 156.322 48.9512 156.709 48.9512C157.135 48.9512 157.455 48.873 157.67 48.7168C157.814 48.6074 157.887 48.4609 157.887 48.2773C157.887 48.1523 157.848 48.0488 157.77 47.9668C157.688 47.8887 157.504 47.8164 157.219 47.75C155.891 47.457 155.049 47.1895 154.693 46.9473C154.201 46.6113 153.955 46.1445 153.955 45.5469C153.955 45.0078 154.168 44.5547 154.594 44.1875C155.02 43.8203 155.68 43.6367 156.574 43.6367C157.426 43.6367 158.059 43.7754 158.473 44.0527C158.887 44.3301 159.172 44.7402 159.328 45.2832L157.775 45.5703C157.709 45.3281 157.582 45.1426 157.395 45.0137C157.211 44.8848 156.947 44.8203 156.604 44.8203C156.17 44.8203 155.859 44.8809 155.672 45.002C155.547 45.0879 155.484 45.1992 155.484 45.3359C155.484 45.4531 155.539 45.5527 155.648 45.6348C155.797 45.7441 156.309 45.8984 157.184 46.0977C158.062 46.2969 158.676 46.541 159.023 46.8301C159.367 47.123 159.539 47.5312 159.539 48.0547C159.539 48.625 159.301 49.1152 158.824 49.5254C158.348 49.9355 157.643 50.1406 156.709 50.1406C155.861 50.1406 155.189 49.9688 154.693 49.625C154.201 49.2812 153.879 48.8145 153.727 48.2246ZM165.486 50L163.518 43.7773H165.117L166.283 47.8555L167.355 43.7773H168.943L169.98 47.8555L171.17 43.7773H172.793L170.795 50H169.213L168.141 45.998L167.086 50H165.486ZM174.896 45.6758L173.402 45.4062C173.57 44.8047 173.859 44.3594 174.27 44.0703C174.68 43.7812 175.289 43.6367 176.098 43.6367C176.832 43.6367 177.379 43.7246 177.738 43.9004C178.098 44.0723 178.35 44.293 178.494 44.5625C178.643 44.8281 178.717 45.3184 178.717 46.0332L178.699 47.9551C178.699 48.502 178.725 48.9062 178.775 49.168C178.83 49.4258 178.93 49.7031 179.074 50H177.445C177.402 49.8906 177.35 49.7285 177.287 49.5137C177.26 49.416 177.24 49.3516 177.229 49.3203C176.947 49.5938 176.646 49.7988 176.326 49.9355C176.006 50.0723 175.664 50.1406 175.301 50.1406C174.66 50.1406 174.154 49.9668 173.783 49.6191C173.416 49.2715 173.232 48.832 173.232 48.3008C173.232 47.9492 173.316 47.6367 173.484 47.3633C173.652 47.0859 173.887 46.875 174.188 46.7305C174.492 46.582 174.93 46.4531 175.5 46.3438C176.27 46.1992 176.803 46.0645 177.1 45.9395V45.7754C177.1 45.459 177.021 45.2344 176.865 45.1016C176.709 44.9648 176.414 44.8965 175.98 44.8965C175.688 44.8965 175.459 44.9551 175.295 45.0723C175.131 45.1855 174.998 45.3867 174.896 45.6758ZM177.1 47.0117C176.889 47.082 176.555 47.166 176.098 47.2637C175.641 47.3613 175.342 47.457 175.201 47.5508C174.986 47.7031 174.879 47.8965 174.879 48.1309C174.879 48.3613 174.965 48.5605 175.137 48.7285C175.309 48.8965 175.527 48.9805 175.793 48.9805C176.09 48.9805 176.373 48.8828 176.643 48.6875C176.842 48.5391 176.973 48.3574 177.035 48.1426C177.078 48.002 177.1 47.7344 177.1 47.3398V47.0117ZM183.199 43.7773V45.0898H182.074V47.5977C182.074 48.1055 182.084 48.4023 182.104 48.4883C182.127 48.5703 182.176 48.6387 182.25 48.6934C182.328 48.748 182.422 48.7754 182.531 48.7754C182.684 48.7754 182.904 48.7227 183.193 48.6172L183.334 49.8945C182.951 50.0586 182.518 50.1406 182.033 50.1406C181.736 50.1406 181.469 50.0918 181.23 49.9941C180.992 49.8926 180.816 49.7637 180.703 49.6074C180.594 49.4473 180.518 49.2324 180.475 48.9629C180.439 48.7715 180.422 48.3848 180.422 47.8027V45.0898H179.666V43.7773H180.422V42.541L182.074 41.5801V43.7773H183.199ZM187.945 48.0195L189.586 48.2949C189.375 48.8965 189.041 49.3555 188.584 49.6719C188.131 49.9844 187.562 50.1406 186.879 50.1406C185.797 50.1406 184.996 49.7871 184.477 49.0801C184.066 48.5137 183.861 47.7988 183.861 46.9355C183.861 45.9043 184.131 45.0977 184.67 44.5156C185.209 43.9297 185.891 43.6367 186.715 43.6367C187.641 43.6367 188.371 43.9434 188.906 44.5566C189.441 45.166 189.697 46.1016 189.674 47.3633H185.549C185.561 47.8516 185.693 48.2324 185.947 48.5059C186.201 48.7754 186.518 48.9102 186.896 48.9102C187.154 48.9102 187.371 48.8398 187.547 48.6992C187.723 48.5586 187.855 48.332 187.945 48.0195ZM188.039 46.3555C188.027 45.8789 187.904 45.5176 187.67 45.2715C187.436 45.0215 187.15 44.8965 186.814 44.8965C186.455 44.8965 186.158 45.0273 185.924 45.2891C185.689 45.5508 185.574 45.9062 185.578 46.3555H188.039ZM192.598 50H190.951V43.7773H192.48V44.6621C192.742 44.2441 192.977 43.9688 193.184 43.8359C193.395 43.7031 193.633 43.6367 193.898 43.6367C194.273 43.6367 194.635 43.7402 194.982 43.9473L194.473 45.3828C194.195 45.2031 193.938 45.1133 193.699 45.1133C193.469 45.1133 193.273 45.1777 193.113 45.3066C192.953 45.4316 192.826 45.6602 192.732 45.9922C192.643 46.3242 192.598 47.0195 192.598 48.0781V50ZM198.457 48.2246L200.109 47.9727C200.18 48.293 200.322 48.5371 200.537 48.7051C200.752 48.8691 201.053 48.9512 201.439 48.9512C201.865 48.9512 202.186 48.873 202.4 48.7168C202.545 48.6074 202.617 48.4609 202.617 48.2773C202.617 48.1523 202.578 48.0488 202.5 47.9668C202.418 47.8887 202.234 47.8164 201.949 47.75C200.621 47.457 199.779 47.1895 199.424 46.9473C198.932 46.6113 198.686 46.1445 198.686 45.5469C198.686 45.0078 198.898 44.5547 199.324 44.1875C199.75 43.8203 200.41 43.6367 201.305 43.6367C202.156 43.6367 202.789 43.7754 203.203 44.0527C203.617 44.3301 203.902 44.7402 204.059 45.2832L202.506 45.5703C202.439 45.3281 202.312 45.1426 202.125 45.0137C201.941 44.8848 201.678 44.8203 201.334 44.8203C200.9 44.8203 200.59 44.8809 200.402 45.002C200.277 45.0879 200.215 45.1992 200.215 45.3359C200.215 45.4531 200.27 45.5527 200.379 45.6348C200.527 45.7441 201.039 45.8984 201.914 46.0977C202.793 46.2969 203.406 46.541 203.754 46.8301C204.098 47.123 204.27 47.5312 204.27 48.0547C204.27 48.625 204.031 49.1152 203.555 49.5254C203.078 49.9355 202.373 50.1406 201.439 50.1406C200.592 50.1406 199.92 49.9688 199.424 49.625C198.932 49.2812 198.609 48.8145 198.457 48.2246ZM206.947 45.6758L205.453 45.4062C205.621 44.8047 205.91 44.3594 206.32 44.0703C206.73 43.7812 207.34 43.6367 208.148 43.6367C208.883 43.6367 209.43 43.7246 209.789 43.9004C210.148 44.0723 210.4 44.293 210.545 44.5625C210.693 44.8281 210.768 45.3184 210.768 46.0332L210.75 47.9551C210.75 48.502 210.775 48.9062 210.826 49.168C210.881 49.4258 210.98 49.7031 211.125 50H209.496C209.453 49.8906 209.4 49.7285 209.338 49.5137C209.311 49.416 209.291 49.3516 209.279 49.3203C208.998 49.5938 208.697 49.7988 208.377 49.9355C208.057 50.0723 207.715 50.1406 207.352 50.1406C206.711 50.1406 206.205 49.9668 205.834 49.6191C205.467 49.2715 205.283 48.832 205.283 48.3008C205.283 47.9492 205.367 47.6367 205.535 47.3633C205.703 47.0859 205.938 46.875 206.238 46.7305C206.543 46.582 206.98 46.4531 207.551 46.3438C208.32 46.1992 208.854 46.0645 209.15 45.9395V45.7754C209.15 45.459 209.072 45.2344 208.916 45.1016C208.76 44.9648 208.465 44.8965 208.031 44.8965C207.738 44.8965 207.51 44.9551 207.346 45.0723C207.182 45.1855 207.049 45.3867 206.947 45.6758ZM209.15 47.0117C208.939 47.082 208.605 47.166 208.148 47.2637C207.691 47.3613 207.393 47.457 207.252 47.5508C207.037 47.7031 206.93 47.8965 206.93 48.1309C206.93 48.3613 207.016 48.5605 207.188 48.7285C207.359 48.8965 207.578 48.9805 207.844 48.9805C208.141 48.9805 208.424 48.8828 208.693 48.6875C208.893 48.5391 209.023 48.3574 209.086 48.1426C209.129 48.002 209.15 47.7344 209.15 47.3398V47.0117ZM211.676 43.7773H212.59V43.3086C212.59 42.7852 212.645 42.3945 212.754 42.1367C212.867 41.8789 213.072 41.6699 213.369 41.5098C213.67 41.3457 214.049 41.2637 214.506 41.2637C214.975 41.2637 215.434 41.334 215.883 41.4746L215.66 42.623C215.398 42.5605 215.146 42.5293 214.904 42.5293C214.666 42.5293 214.494 42.5859 214.389 42.6992C214.287 42.8086 214.236 43.0215 214.236 43.3379V43.7773H215.467V45.0723H214.236V50H212.59V45.0723H211.676V43.7773ZM219.996 48.0195L221.637 48.2949C221.426 48.8965 221.092 49.3555 220.635 49.6719C220.182 49.9844 219.613 50.1406 218.93 50.1406C217.848 50.1406 217.047 49.7871 216.527 49.0801C216.117 48.5137 215.912 47.7988 215.912 46.9355C215.912 45.9043 216.182 45.0977 216.721 44.5156C217.26 43.9297 217.941 43.6367 218.766 43.6367C219.691 43.6367 220.422 43.9434 220.957 44.5566C221.492 45.166 221.748 46.1016 221.725 47.3633H217.6C217.611 47.8516 217.744 48.2324 217.998 48.5059C218.252 48.7754 218.568 48.9102 218.947 48.9102C219.205 48.9102 219.422 48.8398 219.598 48.6992C219.773 48.5586 219.906 48.332 219.996 48.0195ZM220.09 46.3555C220.078 45.8789 219.955 45.5176 219.721 45.2715C219.486 45.0215 219.201 44.8965 218.865 44.8965C218.506 44.8965 218.209 45.0273 217.975 45.2891C217.74 45.5508 217.625 45.9062 217.629 46.3555H220.09Z"
                  fill="#E6E6E6"/>
        </g>
        <g filter="url(#filter1_d_4_14)">
            <path d="M180.861 31V29.3535H182.508V31H180.861ZM189.627 26.6172L188.004 26.9102C187.949 26.5859 187.824 26.3418 187.629 26.1777C187.438 26.0137 187.188 25.9316 186.879 25.9316C186.469 25.9316 186.141 26.0742 185.895 26.3594C185.652 26.6406 185.531 27.1133 185.531 27.7773C185.531 28.5156 185.654 29.0371 185.9 29.3418C186.15 29.6465 186.484 29.7988 186.902 29.7988C187.215 29.7988 187.471 29.7109 187.67 29.5352C187.869 29.3555 188.01 29.0488 188.092 28.6152L189.709 28.8906C189.541 29.6328 189.219 30.1934 188.742 30.5723C188.266 30.9512 187.627 31.1406 186.826 31.1406C185.916 31.1406 185.189 30.8535 184.646 30.2793C184.107 29.7051 183.838 28.9102 183.838 27.8945C183.838 26.8672 184.109 26.0684 184.652 25.498C185.195 24.9238 185.93 24.6367 186.855 24.6367C187.613 24.6367 188.215 24.8008 188.66 25.1289C189.109 25.4531 189.432 25.9492 189.627 26.6172ZM190.5 27.8008C190.5 27.2539 190.635 26.7246 190.904 26.2129C191.174 25.7012 191.555 25.3105 192.047 25.041C192.543 24.7715 193.096 24.6367 193.705 24.6367C194.646 24.6367 195.418 24.9434 196.02 25.5566C196.621 26.166 196.922 26.9375 196.922 27.8711C196.922 28.8125 196.617 29.5938 196.008 30.2148C195.402 30.832 194.639 31.1406 193.717 31.1406C193.146 31.1406 192.602 31.0117 192.082 30.7539C191.566 30.4961 191.174 30.1191 190.904 29.623C190.635 29.123 190.5 28.5156 190.5 27.8008ZM192.188 27.8887C192.188 28.5059 192.334 28.9785 192.627 29.3066C192.92 29.6348 193.281 29.7988 193.711 29.7988C194.141 29.7988 194.5 29.6348 194.789 29.3066C195.082 28.9785 195.229 28.502 195.229 27.877C195.229 27.2676 195.082 26.7988 194.789 26.4707C194.5 26.1426 194.141 25.9785 193.711 25.9785C193.281 25.9785 192.92 26.1426 192.627 26.4707C192.334 26.7988 192.188 27.2715 192.188 27.8887ZM198.094 24.7773H199.611V25.627C200.154 24.9668 200.801 24.6367 201.551 24.6367C201.949 24.6367 202.295 24.7188 202.588 24.8828C202.881 25.0469 203.121 25.2949 203.309 25.627C203.582 25.2949 203.877 25.0469 204.193 24.8828C204.51 24.7188 204.848 24.6367 205.207 24.6367C205.664 24.6367 206.051 24.7305 206.367 24.918C206.684 25.1016 206.92 25.373 207.076 25.7324C207.189 25.998 207.246 26.4277 207.246 27.0215V31H205.6V27.4434C205.6 26.8262 205.543 26.4277 205.43 26.248C205.277 26.0137 205.043 25.8965 204.727 25.8965C204.496 25.8965 204.279 25.9668 204.076 26.1074C203.873 26.248 203.727 26.4551 203.637 26.7285C203.547 26.998 203.502 27.4258 203.502 28.0117V31H201.855V27.5898C201.855 26.9844 201.826 26.5938 201.768 26.418C201.709 26.2422 201.617 26.1113 201.492 26.0254C201.371 25.9395 201.205 25.8965 200.994 25.8965C200.74 25.8965 200.512 25.9648 200.309 26.1016C200.105 26.2383 199.959 26.4355 199.869 26.6934C199.783 26.9512 199.74 27.3789 199.74 27.9766V31H198.094V24.7773ZM212.232 23.9336V22.4102H213.879V23.9336H212.232ZM212.232 31V24.7773H213.879V31H212.232ZM221.232 31H219.586V27.8242C219.586 27.1523 219.551 26.7188 219.48 26.5234C219.41 26.3242 219.295 26.1699 219.135 26.0605C218.979 25.9512 218.789 25.8965 218.566 25.8965C218.281 25.8965 218.025 25.9746 217.799 26.1309C217.572 26.2871 217.416 26.4941 217.33 26.752C217.248 27.0098 217.207 27.4863 217.207 28.1816V31H215.561V24.7773H217.09V25.6914C217.633 24.9883 218.316 24.6367 219.141 24.6367C219.504 24.6367 219.836 24.7031 220.137 24.8359C220.438 24.9648 220.664 25.1309 220.816 25.334C220.973 25.5371 221.08 25.7676 221.139 26.0254C221.201 26.2832 221.232 26.6523 221.232 27.1328V31ZM228.334 26.6172L226.711 26.9102C226.656 26.5859 226.531 26.3418 226.336 26.1777C226.145 26.0137 225.895 25.9316 225.586 25.9316C225.176 25.9316 224.848 26.0742 224.602 26.3594C224.359 26.6406 224.238 27.1133 224.238 27.7773C224.238 28.5156 224.361 29.0371 224.607 29.3418C224.857 29.6465 225.191 29.7988 225.609 29.7988C225.922 29.7988 226.178 29.7109 226.377 29.5352C226.576 29.3555 226.717 29.0488 226.799 28.6152L228.416 28.8906C228.248 29.6328 227.926 30.1934 227.449 30.5723C226.973 30.9512 226.334 31.1406 225.533 31.1406C224.623 31.1406 223.896 30.8535 223.354 30.2793C222.814 29.7051 222.545 28.9102 222.545 27.8945C222.545 26.8672 222.816 26.0684 223.359 25.498C223.902 24.9238 224.637 24.6367 225.562 24.6367C226.32 24.6367 226.922 24.8008 227.367 25.1289C227.816 25.4531 228.139 25.9492 228.334 26.6172Z"
                  fill="white"/>
        </g>
        <g filter="url(#filter2_d_4_14)">
            <path d="M48.2383 31H44.4648L42.9648 27.0977H36.0977L34.6797 31H31L37.6914 13.8203H41.3594L48.2383 31ZM41.8516 24.2031L39.4844 17.8281L37.1641 24.2031H41.8516ZM61.3867 31H58.0938V24.6484C58.0938 23.3047 58.0234 22.4375 57.8828 22.0469C57.7422 21.6484 57.5117 21.3398 57.1914 21.1211C56.8789 20.9023 56.5 20.793 56.0547 20.793C55.4844 20.793 54.9727 20.9492 54.5195 21.2617C54.0664 21.5742 53.7539 21.9883 53.582 22.5039C53.418 23.0195 53.3359 23.9727 53.3359 25.3633V31H50.043V18.5547H53.1016V20.3828C54.1875 18.9766 55.5547 18.2734 57.2031 18.2734C57.9297 18.2734 58.5938 18.4062 59.1953 18.6719C59.7969 18.9297 60.25 19.2617 60.5547 19.668C60.8672 20.0742 61.082 20.5352 61.1992 21.0508C61.3242 21.5664 61.3867 22.3047 61.3867 23.2656V31ZM63.1797 18.5547H66.6836L69.6602 27.3906L72.5664 18.5547H75.9766L71.582 30.5312L70.7969 32.6992C70.5078 33.4258 70.2305 33.9805 69.9648 34.3633C69.707 34.7461 69.4062 35.0547 69.0625 35.2891C68.7266 35.5312 68.3086 35.7188 67.8086 35.8516C67.3164 35.9844 66.7578 36.0508 66.1328 36.0508C65.5 36.0508 64.8789 35.9844 64.2695 35.8516L63.9766 33.2734C64.4922 33.375 64.957 33.4258 65.3711 33.4258C66.1367 33.4258 66.7031 33.1992 67.0703 32.7461C67.4375 32.3008 67.7188 31.7305 67.9141 31.0352L63.1797 18.5547ZM78.1328 13.8203H85C86.3594 13.8203 87.3711 13.8789 88.0352 13.9961C88.707 14.1055 89.3047 14.3398 89.8281 14.6992C90.3594 15.0586 90.8008 15.5391 91.1523 16.1406C91.5039 16.7344 91.6797 17.4023 91.6797 18.1445C91.6797 18.9492 91.4609 19.6875 91.0234 20.3594C90.5938 21.0312 90.0078 21.5352 89.2656 21.8711C90.3125 22.1758 91.1172 22.6953 91.6797 23.4297C92.2422 24.1641 92.5234 25.0273 92.5234 26.0195C92.5234 26.8008 92.3398 27.5625 91.9727 28.3047C91.6133 29.0391 91.1172 29.6289 90.4844 30.0742C89.8594 30.5117 89.0859 30.7812 88.1641 30.8828C87.5859 30.9453 86.1914 30.9844 83.9805 31H78.1328V13.8203ZM81.6016 16.6797V20.6523H83.875C85.2266 20.6523 86.0664 20.6328 86.3945 20.5938C86.9883 20.5234 87.4531 20.3203 87.7891 19.9844C88.1328 19.6406 88.3047 19.1914 88.3047 18.6367C88.3047 18.1055 88.1562 17.6758 87.8594 17.3477C87.5703 17.0117 87.1367 16.8086 86.5586 16.7383C86.2148 16.6992 85.2266 16.6797 83.5938 16.6797H81.6016ZM81.6016 23.5117V28.1055H84.8125C86.0625 28.1055 86.8555 28.0703 87.1914 28C87.707 27.9062 88.125 27.6797 88.4453 27.3203C88.7734 26.9531 88.9375 26.4648 88.9375 25.8555C88.9375 25.3398 88.8125 24.9023 88.5625 24.543C88.3125 24.1836 87.9492 23.9219 87.4727 23.7578C87.0039 23.5938 85.9805 23.5117 84.4023 23.5117H81.6016ZM97.9023 22.3516L94.9141 21.8125C95.25 20.6094 95.8281 19.7188 96.6484 19.1406C97.4688 18.5625 98.6875 18.2734 100.305 18.2734C101.773 18.2734 102.867 18.4492 103.586 18.8008C104.305 19.1445 104.809 19.5859 105.098 20.125C105.395 20.6562 105.543 21.6367 105.543 23.0664L105.508 26.9102C105.508 28.0039 105.559 28.8125 105.66 29.3359C105.77 29.8516 105.969 30.4062 106.258 31H103C102.914 30.7812 102.809 30.457 102.684 30.0273C102.629 29.832 102.59 29.7031 102.566 29.6406C102.004 30.1875 101.402 30.5977 100.762 30.8711C100.121 31.1445 99.4375 31.2812 98.7109 31.2812C97.4297 31.2812 96.418 30.9336 95.6758 30.2383C94.9414 29.543 94.5742 28.6641 94.5742 27.6016C94.5742 26.8984 94.7422 26.2734 95.0781 25.7266C95.4141 25.1719 95.8828 24.75 96.4844 24.4609C97.0938 24.1641 97.9688 23.9062 99.1094 23.6875C100.648 23.3984 101.715 23.1289 102.309 22.8789V22.5508C102.309 21.918 102.152 21.4688 101.84 21.2031C101.527 20.9297 100.938 20.793 100.07 20.793C99.4844 20.793 99.0273 20.9102 98.6992 21.1445C98.3711 21.3711 98.1055 21.7734 97.9023 22.3516ZM102.309 25.0234C101.887 25.1641 101.219 25.332 100.305 25.5273C99.3906 25.7227 98.793 25.9141 98.5117 26.1016C98.082 26.4062 97.8672 26.793 97.8672 27.2617C97.8672 27.7227 98.0391 28.1211 98.3828 28.457C98.7266 28.793 99.1641 28.9609 99.6953 28.9609C100.289 28.9609 100.855 28.7656 101.395 28.375C101.793 28.0781 102.055 27.7148 102.18 27.2852C102.266 27.0039 102.309 26.4688 102.309 25.6797V25.0234ZM119.652 22.2344L116.406 22.8203C116.297 22.1719 116.047 21.6836 115.656 21.3555C115.273 21.0273 114.773 20.8633 114.156 20.8633C113.336 20.8633 112.68 21.1484 112.188 21.7188C111.703 22.2812 111.461 23.2266 111.461 24.5547C111.461 26.0312 111.707 27.0742 112.199 27.6836C112.699 28.293 113.367 28.5977 114.203 28.5977C114.828 28.5977 115.34 28.4219 115.738 28.0703C116.137 27.7109 116.418 27.0977 116.582 26.2305L119.816 26.7812C119.48 28.2656 118.836 29.3867 117.883 30.1445C116.93 30.9023 115.652 31.2812 114.051 31.2812C112.23 31.2812 110.777 30.707 109.691 29.5586C108.613 28.4102 108.074 26.8203 108.074 24.7891C108.074 22.7344 108.617 21.1367 109.703 19.9961C110.789 18.8477 112.258 18.2734 114.109 18.2734C115.625 18.2734 116.828 18.6016 117.719 19.2578C118.617 19.9062 119.262 20.8984 119.652 22.2344ZM122.043 31V13.8203H125.336V22.9375L129.191 18.5547H133.246L128.992 23.1016L133.551 31H130L126.871 25.4102L125.336 27.0156V31H122.043ZM134.078 18.5547H135.906V17.6172C135.906 16.5703 136.016 15.7891 136.234 15.2734C136.461 14.7578 136.871 14.3398 137.465 14.0195C138.066 13.6914 138.824 13.5273 139.738 13.5273C140.676 13.5273 141.594 13.668 142.492 13.9492L142.047 16.2461C141.523 16.1211 141.02 16.0586 140.535 16.0586C140.059 16.0586 139.715 16.1719 139.504 16.3984C139.301 16.6172 139.199 17.043 139.199 17.6758V18.5547H141.66V21.1445H139.199V31H135.906V21.1445H134.078V18.5547ZM143.512 31V13.8203H146.805V31H143.512ZM149.43 24.6016C149.43 23.5078 149.699 22.4492 150.238 21.4258C150.777 20.4023 151.539 19.6211 152.523 19.082C153.516 18.543 154.621 18.2734 155.84 18.2734C157.723 18.2734 159.266 18.8867 160.469 20.1133C161.672 21.332 162.273 22.875 162.273 24.7422C162.273 26.625 161.664 28.1875 160.445 29.4297C159.234 30.6641 157.707 31.2812 155.863 31.2812C154.723 31.2812 153.633 31.0234 152.594 30.5078C151.562 29.9922 150.777 29.2383 150.238 28.2461C149.699 27.2461 149.43 26.0312 149.43 24.6016ZM152.805 24.7773C152.805 26.0117 153.098 26.957 153.684 27.6133C154.27 28.2695 154.992 28.5977 155.852 28.5977C156.711 28.5977 157.43 28.2695 158.008 27.6133C158.594 26.957 158.887 26.0039 158.887 24.7539C158.887 23.5352 158.594 22.5977 158.008 21.9414C157.43 21.2852 156.711 20.957 155.852 20.957C154.992 20.957 154.27 21.2852 153.684 21.9414C153.098 22.5977 152.805 23.543 152.805 24.7773ZM167.184 31L163.246 18.5547H166.445L168.777 26.7109L170.922 18.5547H174.098L176.172 26.7109L178.551 18.5547H181.797L177.801 31H174.637L172.492 22.9961L170.383 31H167.184Z"
                  fill="white"/>
        </g>
        <g filter="url(#filter3_d_4_14)">
            <path d="M22.606 18.7836L22.5953 18.7682L22.5814 18.7513L15.5 10L8.40546 18.7668L8.39321 18.7836C6.97036 20.7026 6.00493 22.9213 6 25.1513C5.99917 26.1094 6.18328 27.0689 6.59894 27.9842C7.01294 28.8995 7.66094 29.7671 8.55281 30.5321H8.55365C10.4681 32.1753 12.9898 33.0014 15.5 33C18.0102 33.0014 20.531 32.1753 22.4464 30.5321C23.3391 29.767 23.9871 28.8994 24.4011 27.9849C24.8167 27.0689 25 26.1094 25 25.152C24.9951 22.9214 24.0296 20.7026 22.606 18.7836ZM22.21 27.2535C21.9105 27.9126 21.4532 28.531 20.7847 29.1058C19.3226 30.3594 17.417 30.982 15.5 30.9834C13.583 30.982 11.6774 30.3594 10.2153 29.1058C9.546 28.5309 9.08944 27.9126 8.78918 27.2528C8.49055 26.5937 8.35063 25.8897 8.35063 25.1513C8.34493 23.4408 9.12871 21.5428 10.3683 19.8786L15.5 13.5362L20.6333 19.88C21.8712 21.5442 22.6542 23.4414 22.6493 25.152C22.6493 25.8904 22.5094 26.5944 22.21 27.2535Z"
                  fill="white"/>
            <path d="M13.2163 21C12.0559 22.2022 10.2081 25.3666 11.3685 27.5697C12.6643 30.0305 14.4278 28.5677 13.6033 27.0098C12.0133 24.0049 13.2163 21 13.2163 21Z"
                  fill="white"/>
        </g>
    </g>
    <defs>
        <filter id="filter0_d_4_14" x="2" y="41.2637" width="223.76" height="19.2617" filterUnits="userSpaceOnUse"
                color-interpolation-filters="sRGB">
            <feFlood flood-opacity="0" result="BackgroundImageFix"/>
            <feColorMatrix in="SourceAlpha" type="matrix" values="0 0 0 0 0 0 0 0 0 0 0 0 0 0 0 0 0 0 127 0"
                           result="hardAlpha"/>
            <feOffset dy="4"/>
            <feGaussianBlur stdDeviation="2"/>
            <feComposite in2="hardAlpha" operator="out"/>
            <feColorMatrix type="matrix" values="0 0 0 0 0 0 0 0 0 0 0 0 0 0 0 0 0 0 0.25 0"/>
            <feBlend mode="normal" in2="BackgroundImageFix" result="effect1_dropShadow_4_14"/>
            <feBlend mode="normal" in="SourceGraphic" in2="effect1_dropShadow_4_14" result="shape"/>
        </filter>
        <filter id="filter1_d_4_14" x="176.861" y="22.4102" width="55.5547" height="16.7305"
                filterUnits="userSpaceOnUse" color-interpolation-filters="sRGB">
            <feFlood flood-opacity="0" result="BackgroundImageFix"/>
            <feColorMatrix in="SourceAlpha" type="matrix" values="0 0 0 0 0 0 0 0 0 0 0 0 0 0 0 0 0 0 127 0"
                           result="hardAlpha"/>
            <feOffset dy="4"/>
            <feGaussianBlur stdDeviation="2"/>
            <feComposite in2="hardAlpha" operator="out"/>
            <feColorMatrix type="matrix" values="0 0 0 0 0 0 0 0 0 0 0 0 0 0 0 0 0 0 0.25 0"/>
            <feBlend mode="normal" in2="BackgroundImageFix" result="effect1_dropShadow_4_14"/>
            <feBlend mode="normal" in="SourceGraphic" in2="effect1_dropShadow_4_14" result="shape"/>
        </filter>
        <filter id="filter2_d_4_14" x="27" y="13.5273" width="158.797" height="30.5234" filterUnits="userSpaceOnUse"
                color-interpolation-filters="sRGB">
            <feFlood flood-opacity="0" result="BackgroundImageFix"/>
            <feColorMatrix in="SourceAlpha" type="matrix" values="0 0 0 0 0 0 0 0 0 0 0 0 0 0 0 0 0 0 127 0"
                           result="hardAlpha"/>
            <feOffset dy="4"/>
            <feGaussianBlur stdDeviation="2"/>
            <feComposite in2="hardAlpha" operator="out"/>
            <feColorMatrix type="matrix" values="0 0 0 0 0 0 0 0 0 0 0 0 0 0 0 0 0 0 0.25 0"/>
            <feBlend mode="normal" in2="BackgroundImageFix" result="effect1_dropShadow_4_14"/>
            <feBlend mode="normal" in="SourceGraphic" in2="effect1_dropShadow_4_14" result="shape"/>
        </filter>
        <filter id="filter3_d_4_14" x="2" y="10" width="27" height="31" filterUnits="userSpaceOnUse"
                color-interpolation-filters="sRGB">
            <feFlood flood-opacity="0" result="BackgroundImageFix"/>
            <feColorMatrix in="SourceAlpha" type="matrix" values="0 0 0 0 0 0 0 0 0 0 0 0 0 0 0 0 0 0 127 0"
                           result="hardAlpha"/>
            <feOffset dy="4"/>
            <feGaussianBlur stdDeviation="2"/>
            <feComposite in2="hardAlpha" operator="out"/>
            <feColorMatrix type="matrix" values="0 0 0 0 0 0 0 0 0 0 0 0 0 0 0 0 0 0 0.25 0"/>
            <feBlend mode="normal" in2="BackgroundImageFix" result="effect1_dropShadow_4_14"/>
            <feBlend mode="normal" in="SourceGraphic" in2="effect1_dropShadow_4_14" result="shape"/>
        </filter>
        <clipPath id="clip0_4_14">
            <rect width="250" height="60" fill="white"/>
        </clipPath>
    </defs>
</svg>
